<svg xmlns="http://www.w3.org/2000/svg" width="1671.9" height="855.9" viewBox="0 0 1671.9 855.9" id="Layer_1"><style>#tzlimits{fill:none;stroke:rgba(255,255,255,.05)}</style><g id="tzlimits"><path d="M1105.473 34.84h57.812V.151" id="path8001"/><path d="M1302.699 855.568c-.361-1.445 0-260.05 0-260.05l10.672-3.651v-4.57l-2.428-2.3 1.278-3.449 8.176-1.277 2.555-4.216-6.388-2.044-8.048-2.3 2.035-9.588.891-2.488 1.263-.813.487-2.036 2.163-1.149 1.025-2.316 1.125-1.112v-.803l-1.875-1.786-.488-1.26.213-2.109-1.675.716-.15-2.156.45-1.581-5.8.396.687-1.319-.4-.602 1.563-1.109v-.936" id="path8007"/><path d="M13.797 583.592L2.555 554.21" id="path8049"/><path d="M362.457 304.506v-1.313l-4.469-1.468v-3h-.187v-1.5l4.656-1.5v-7.594l-2.312-1.5-1.157-1.563v-1.53l1.157-1.532 2.312-1.563v-4.656h4.625v-1.594l2.344-2.343v-1.594l-2.344-2.375h-4.625l.031-13.625 4.156-4.98v-39.194l14.915-25.293 4.611-2.16c.004-46.033.004-99.136.004-150.573" id="path7999"/><path d="M385.515 403.744l-.53-1.469 1.28-3.093-1.062-2.438-.188-3.219.5-1.812.594-.5-1.25-2.906-2.094-11.282 1.063-.437 1.312-2.625 1.72-1.688-.595-1.687.813-.875-.125-1.344.562-1.094-2.562-2.312-.875.312-1.281-1.375-1.72.125-1.218-.75.063-1.03-1.22-1.376-.53.906-.688-.25-1.469-2.125-.28-1.28-2.876.468 1.125-1.563-.687-2 .593-1.375.25-3.5.282-4.093 1.437-.22 1.031-2.593 1.563-1.187-.188-1.532m-3.089-21.613l-.594-2.5-1.093-.125-.094-1.343-2.125-.094-.406-.969h-3.469l-.562.5-1.313-.03-.25-.876-1.281-.094-.75-.593-.094-1" id="path7997"/><path d="M119.369 578.765v28.21h25.497v-28.21H119.37z" id="path5197-1"/><path d="M147.063 161.412l-.125 9.532v.03l.718.595.688 1.968.156 3 10.563.032-.282.218 1.375 3.25-.969 1.907 1.125.312-.156 2.375.938.094 1.312-.625.938.156-.125.75 1.5-.906 1.281.469-.438.375 1.188 2.5-2.75 3.093 2 1.094-.813.594-.125 1.437.97-.03 3 1.874-.563 1.094.969.062 1.03-.75 1.345.782 1.53 2.78 3 1.438-.874.813 2.187 1.5-1.406 1.594 1.406 1.28 1.031.22-.562 1.218.813 2.313 1.75.687-.5.188v2.125l2.312.687 1-.437 2.75 3.094 1.969 1.25 1.906.375 1.406 4.937 2.656-.187.188-.532 1 .407.563-.657 2.5.782 2.218-.532.281-.78 1 .155.532 1.125-.375.625 1.656 1.782.938 3 18.562.093V246.725l-.219-.063.031.188-.218.031-.438.25-.187-.031.03-.188-.78-.062.125-.375-.063-.063-.031-.218.187-.125-.28-.625-.22-.125-.156-.032-.062.25-.188-.03-.219.062-.187-.063-.781.063-1.032.25.125.375-.656.437-1.031.344-.969-.063-.625-.093-.219.343v.407l-.312.375.125.093-.188.157-.218.03-.031.25-.188.188-.25-.156-.469.125-.031-.219-.5-.156-.281.031-.031.125-.125.125-.313-.218-.219.093-.093-.062h-.094l-.125-.188h-.344l-.312.063-.438-.219-.25.062-.219-.28-.375.124-.312-.594-.594.094-1 .406-.437-.125-.563.72-1.469.468.032.437.156.25-.094.344.219.563.312.125.094.53h-.344l.375.532.5.125-.03.531h-.25l-.032.344.25-.031-.063.812.375.188-.125.875.47.875-.188.062.03.282.438.187-.125.156.375.22-.187.468.312.156.344-.062.094-.188.156.031.125.407-.156.187.344.188.093.25.188.187.344-.281.03.344-.062.343.125.188-.375-.031.125.406.5-.094-.03.125.562.219.125.125h.343l.094-.312.219-.125.531.656h.25l.781.719-.187.156.156.25h.375l.031.219.344.03 1.188 1.126-.125.062.062.094h.094l-.125.094-.031.093.312.063.063.156.28-.219-.062-.093.094-.032.375.282.375.156.187.219-.093.125.187.062.094.219-.156.25-.063.219.156.093.063.188h.125l.094.25.156.219.312.062.125.063h.188l.094-.188.593-.031-.062.406.25.22.375-.094.312.062.22-.062.03-.157.25-.03.22.624.187-.094.156.063.219.281-.25.063.093.156-.187.156.281.094.281-.031.188.343-.094.344.375.344.469-.031.312.156.782-.094v.313l-.125.25-.22.03-.093.188.25.25.188.125.312-.28.094.03.094.344.218.469-.156.156.063.156.156.032v-.032h.094l.03.094.032.063h.281l.094.03h.031v.094l-.031.094-.063.063.032.03-.032.032-.03.031-.032.031.063.032.062.03.094-.03h.093l.032.062.03.031h.063l.032-.03.062-.032.063.062.03.063.032.062.062.063.094.031.031.031v.157l.032.03.03.063v.031l-.124.125v.032h-.125l-.094-.094-.219-.031h-.093l-.094-.063h-.094l-.094.031-.03.032.093.062.031.063.094.093.062.032.032.062v.063h-.032v.03l-.125.063-.03.063.03.031.032.062h.062v.032h.093l.063-.094h.031l.032.062.093.063.032.031h.062l.031.063-.03.03v.032l.062.094.062.219.031.03.125.126v.062h.125l.063.031.03.094.157.031h.188l.062-.03-.062-.063v-.032h.03l.094.063.094.062h.125v-.03h.063l.062.03h.125l.125.063h.063l.062-.031.063-.031h.03l.063.03.157.126.03.062v.031l-.03.094.03.063h.063v.125l.031.062h.063l.062.063.032.062.062.125.031.063.094.156v.093l.031.032h.031l.032-.094h.093l.032.031h.187l.031-.031h.031l.125.187h.25l.125.094v.031l.032.063.062.031.031-.031.094-.063-.031-.062-.063-.031v-.094l.063-.094.031-.062.031-.031-.031-.063-.063-.062v-.063l.063-.031.062-.031.125.03h.125l.094.157h.031l.157.031.03.063.063.062h.094l.031.063h.031l.032.062.093.032.063.03v.063l-.031.031.03.032.032.03.125.063h.031l.031.032-.093.187-.094.031-.031.188.031.03h.031l.063-.03.03-.031h.125l.032.03.063.094h.062l.031-.03h.031l.063.03.062.188v.062l-.125.094.032.063v.062l.062.063.156.093v.125l.031.063-.03.125.03.03.063.032.062-.031.032-.031.062-.094.031-.031.063.031h.125l.094.031.062-.031h.063l.03.063.063.062-.062.094v.03l.062.063h.219l.031.032v.062l-.031.094-.063.125-.03.125v.031l.03.031.094.063.094.062.062.031.094.063v.156l.063.094.125.062h.03l.032.063-.031.125-.031.031-.125.031-.032.031-.062.032v.093l-.031.063.093.062v.094l.032.031.093.063h.125l.063.062v.031l-.063.063v.094l.094.187.031.031.25.157-.125.062v.063h-.094v.03l.032.094v.157l.093.125-.03.03-.126.063-.031.157-.156.062-.063-.156-.093-.031-.157.03-.156.157h-.156l-.344.156.031.094-.219.094-.03-.031-.094.156.062.187-.062.032-.063.218-.219.063-.25.187.344.282v.093l.094.219h.344l.343.281.188-.125.031.313.094.03.187-.093.188.031.437.22.156.343.22-.031-.188.25.062.062-.187.375.25.094.093.25.344.062.094-.156.344.156.125.407-.313.218.188.563-.157.344.22.156.374-.25.094.094.031.125.125.093.094-.062.25.187.53-.062.22-.188.562-.03.063.062v.25l.218.093.063.188.219-.031.312.093.219.188-.156.187.062.157-.156-.032-.125-.062-.25.031.531 1.313.406.312-.156.25.563.094-.125.25 1.312 1.312.375.25.219-.093.062.093h.188l.156.094-.469.406.063.125-.031.156-.125.157.343 1.093.094.125.281-.062-.062.437.5.72-.125.093-.125.375.312.344-.156.187-.187-.125-.25.188-.25.25-.094.156-.25.031.031.5-.125-.094-.062.125-.688-.093-.187 1.062.343.281.344 1.438.375.469-.312.25-.125.218-.25.094-.157-.219-.375.188v.187l-.218-.093-.125.062h-.094l.062.188-.125.156.063.25.094.031.25.031.03-.093h.22l.093.156-.093.031v.125l-.063.063h4.094l-.031 5.468 1.53 2.282.032 1.562 1.594.969 2.875 3.25 1.969.312-.72 2.844.438 1.656-.625.407-.062 1.312-.938 1.031-2.093-1-1.375 1.125-1.47-.468-1.28.343-1.032-.218.032-2.563-1.47-.875-.5.375-.187.844 1.407 1.312-2.063 4.438-1.437 1.969v1.03l-1.844-.718h-1.469l-1.344 1.156.188 9.407.625.343 4.719.032.156 2.78h12.969l.687 2.563V370.628l-.625.906-1.75-.687-.812.75.593 5.343 1.094 2.813 1.156.969-1.843 1.656-.063 2.094-.875 1.156.188 1.469.968.5.032.53-.375.657-.844.125-.094.25-1.25 1.844.406 2.031m45.188 55.313l.031-.063 1.969-1 2.219 1.5.343-2.312.782-.125.437-.75-1-.625.281-1.344-1.281-1.375.188-1.75-1.25-.281-.5-.844-1.157.437-.312-1.843-3-1.72-1.719-4.874-.84-.59-1.28.5-1.157-2.032-1.281-1.031-.344-1.281.562-2.344m9.188-25.25l.156.219.375-6.969 8.438-.031.281-26.156 4.562-.063v-3.937l2.375-.282-.125-4.312.907-4.719-.25-.5-2.782-.375-.156-2.031.469-.031h2.906l.469-4.75-.5-4.25.375-.532 1.906-.187.406-1.906-.625-4.97h-.187l-.438-.03h-1.062v-2.188l-.031-2.25v-.062h.031l.031-.031v-.032h.063l.03-.03.032.03h.031l.031-.03h.032v-.063h.03v-.032h.032v.063h.062l.032-.031v-.031l-.032-.032.032-.03h.03l.032-.032.031.031h.031l.032-.031h.062l.031-.031v.062l.063-.031.031-.844h.094v-1h2.281l.844-1.156v-.031l-.032-.094-.03-.187v-.032l-.126-.125-.03-.03h-.126l-.219.03h-.062l-.219.032-.062-.032-.063-.03v-.188l.031-.031.25-.125v-.032h.032l-.032-.093v-.032h-.03l-.032-.03h-.25l-.062-.032-.063-.031-.031-.031-.063-.032h-.03v-.062l-.032-.063v-.124l.031-.032.031-.03v-.032l.032-.156.062-.125v-.063l-.031-.062-.063-.188-.03-.031h-.157l-.063-.031-.062-.031-.031-.032-.031-.03-.063-.063-.031-.063.031-.031v-.124l.031-.032.031-.031v-.031h.094l.063.03.062.032.031.062.063.063.031.062.063.032.03.03.094.063h.032l.093.032h.125l.063-.032.031-.03h.031v-.063l.157-.157.03-.03.22-.157.124-.063.032-.03v-.157l-.032-.062-.03-.032-.063-.375v-.125l.031-.062.062-.094h.563v-.093l-.063-.032-.062-.093-.063-.032-.03-.093v-.094l.03-.062.032-.063.03-.062.063-.063.032-.062.03-.063.032-.062v-.125l.031-.063v-.062l.031-.25-.062-.063-.063-.062-.062-.032-.031-.093-.032-.063v-.062l.032-.063.062-.062.094-.125v-.094l-.25-.344-.031-.031v-.125l-.032-.031-.03-.063-.063-.093-.094-.063H314l-.125-.031-.031-.063-.031-.062v-.063l.093-.093.063-.032.031-.03.031-.063.031-.031.032-.157-.032-.062v-.094h.032v-.031l.062-.031.094-.031.031.03h.031l.063.032h.125l.093-.094v-.062l.031-.031v-.032l.032-.03.03-.032v-.031l-.062-.063-.03-.03-.095-.063-.03-.063-.032-.125-.062-.156v-.063l-.063-.03-.062-.032.03-.063v-.03l.032-.032.031-.031.031-.031.032-.032v-.062h-.032l-.03-.031h-.095l-.156-.063h-.031l.031-.062.031-.031v-.063l-.03-.031-.032-.031-.094.031-.062.031-.031-.031-.188-.156v-.031H309.811l-.031-.25v-.5h.031v-.032l.063-.03h-.063l.031-.032.063-.031h.031l.031-.031.033-.036h.031v-.032l.031-.03-.03-.032H310v-.031l.031-.031h.031l.032-.032.03.032h.063l.031-.032.032.032v-.063l.03.031h.032v-.031h.031v.031h.031v-.031l.032-.031v-.031h.093v-.032l.031-.03v-.032h-.03v-.031l.03-.031-.03-.032.062-.03h.062v-.063l.063.031.062-.031v-.031l.063-.032h.062l.031-.03.031-.032v-.094h-.062v-.03l.062-.032v-.031l.063-.031v-.062h.156v-.032h.031l.031-.031.032.031h.062l-.031-.062.062-.032h.032l.03-.03v-.032h-.062v-.094h.062l.032.032h.031l.031-.032v-.03h.032l.03-.032v-.031h.032l.031-.031-.031-.032h.094v-.156h.03v-.03l.032-.032h.031v-.031h.031l.063-.031.031-.032.031-.03h.032l.03.03v.032h.032l.031-.032h.031v.063h.125v.031h.093v-.031h.094l.032.031v-.062h.124l.032-.032h.03v.094h.063v.031h.032v-.031h.03v-.062h.063l.031-.063.032-.031h.187l.031-.031.031-.032h.125l.031-.03v-.032l-.03-.062v-.063l.03-.094v-.062l.032-.063.03-.03v-.032l.095-.063.062-.093-.156-.219-.031-.031v-.031h.093l.031-.032-.03-.062-.094-.031-.125-.032-.063-.03-.156-.126-.031-.062.062-.094.031-.031.032-.031v-.032l-.032-.03h-.03l-.063.03-.063.032-.062.03-.063.032-.094.031h-.03l-.032-.03v-.188h-.094l-.062.03h-.031l-.032-.03-.03-.063v-.094h.092v-.093l-.03-.031h-.094l-.031.03-.063-.03-.093-.157.03-.03.032-.032.031-.063.031-.03v-.094l-.03-.032-.032-.03h-.031l-.094-.094-.031-.032v-.03l-.031-.063-.031-.032-.032-.062-.03-.063-.032-.03-.031-.032v-.031l-.031-.031v-.032l.03-.03v-.126l-.03-.062v-.031h-.032l-.062-.032-.031-.03v-.126l.03-.031.063-.031h.032l.062-.031.031-.032.031-.03v-.157l-.093-.125-.031-.031-.032-.031-.03-.032-.032-.03-.031-.032v-.124l-.063-.282h-.031l-.031-.031-.094-.157v-.124l.063-.094v-.031l-.032-.157-.03-.03h-.032l-.031-.032-.031-.031h-.032l-.03-.031-.032-.032-.062-.03h-.062l-.313-.032-.063.031h-.094l-.03.031-.032.032h-.062l-.032.03v.125l-.03.032h-.063l-.031-.031-.063-.031-.062-.032h-.032l-.03-.03-.032-.032h-.062l-.032-.031-.03-.031v-.032h-.219l-.032-.03v-.032l-.03-.094-.032-.03v-.032l-.187-.406v-.032l-.032-.062v-.062l-.156-.22v-.03l.063-.125.062-.063h.031l.031-.031.032-.031.03-.032h.032l.031-.03v-.032h-.03v-.031l-.032-.031-.031-.032-.063-.03-.094-.094-.03-.032h-.126l-.03.032-.063.03h-.094l-.781.126-.031-.031h-.063l-.531.218-.031.032h-.094l-.031-.032h-.219l-.125-.093-.03-.032h-.032l-.031-.03-.094-.032h-.031l-.156-.031h-.032l-.03.031h-.063l-.032-.031v-.063l.032-.03v-.032l-.032-.062-.593.03h-.125l-.032-.03h-.062v-.032h-.031l-.031-.03v-.032l-.032-.031-.062-.063-.063-.062-.187.03h-.188l-.03.032-.032.031v.032h-.344v.03l-.03.063-.063.031-.031.032v.062l.03.031v.094l-.03.031.03.063-.03.03h-.188l-.25-.062h-.062l-.063-.03-.062-.032h-.032l-.03-.031-.032-.031h-.031l-.031.03h-.157l-.03.032-.032.031h-.094l-.03-.031v-.125l.03-.031v-.031l-.03-.032-.032-.03h-.125l-.031.03-.031-.03-.032-.032-.03-.062h-.25l-.032-.032-.031-.03h-.063l-.03.03h-.063v-.03h-.093v-.032l-.032-.031h-.031v-.063h-.031v-.03h-.156l-.032-.032h-.03l-.032-.031h-.031v.03h-.031v-.03l.03-.063-.03-.031h-.062v-.062h-.032l-.031.03h-.031v-.03h-.032v-.032l-.03-.03h-.125l-.032.03v.125l.031.031h.031v.062h-.03v.063l-.032.031v.032l-.031.03-.063.032v.031h.032v.063h-.062v.03l-.032.032-.063-.031h-.156v-.031h-.062l-.031.03h-.093v.032h-.063l-.031.031h-.062v-.031h-.032l-.063-.031h-.062l-.063-.031h-.03l-.032-.032h-.031l-.219.063h-.031v-.031h-.125v-.031l-.031-.032v-.03h-.031l-.032.03h-.062l-.219.032h-.093v.03l.03.063-.03.031v.156l.03.032h.032v.062h-.031l-.031.031h-.25l-.031-.031-.125-.031h-.031v.062h-.062l-.032.031h-.031v.032h-.031l-.032-.032h-.03v.032h-.032l-.031-.032h-.063v-.437l-.593.031v-.531h-.282V305.576l-.593.03h-.188v-.187l.031-.062v-.031l-.03-.313v-.125l-.063-.03-.063-.032v.031l-.031.031h-.031l-.032-.03-.03-.063v-.032l-.032-.03h-.062l-.032-.032V298.795h-1.062l-.875-.031H292.881v-.032h-23.187v-21.937l-.031-.5h2.5v-.063h.125v-.125h.218v-.25h.375v-.468h-.062v-.063h.344v-.312h-.063v-.094h.063v-.281h.125l.312-.032h.125v.313h.563v.531h.562v-.437l-.125-.031v-.313h.125v-.562h.281l-.437-.47-.313-.468-.281-.281-.094-.125-.062-.313-.5-.312-.188.031-.062-.063-.031-.187-.188-.188h-.406l-.219.125h-.187l-.125-.187-.063-.063-.187-.03-.125-.063v-.125l.125-.156v-.094l-.344-.219-.094-.156v-.063l.031-.093v-.063l-.03-.031-.25-.031-.188-.094-.157.031-.093.094-.031.125-.063.062-.125.032-.312-.094-.47-.219.032-.594-.031-41.78 37.37.12.245-51.438h60.326v-17.987l-22.058-22.695h-8.203l-4.26-5.699-18.783-5.175-4.272.599-2.75-1.993.002-73.87.203-1.1h.005l.728-.24 19.94-.014V.556" id="path10456-7"/><path d="M283.688 424.625l.156-.656.093.062.094.063.094.031.094.062.093.094.125.031h.063l.687.063h.031l.063-.031.094-.094.093-.063.094-.093.094-.063.093-.093.063-.063.094-.094.093-.062.094-.094.094-.062v-.313l.062-.656v-.187l.094-.032.094-.062.437-.375.031-.125.032-.094-.282-.781v-.031l-.03-.063v-.062l.03-.031.032-.063.062-.031.031-.031.219-.063.187-.062.22-.063.187-.062.125-.344-.094-.25-.031-.094.281-.218v-.032l.063-.5v-.062l.25-.062.03.03h.032v-.03l.125-.22v-.03h.031l.094-.188h.031v-.031h.031l.063.062.437.313.063.062.093.063.688.219h.094l.125-.063.156.25.062.063.282.312.406.219.062.031h.032l.062.031.094.063.094.031.03.031.032.031.094.032.093.062.094.031.063.063.03-.031.094-.032.094-.062.094-.031.094-.063h.03l.063-.031.094-.031.094-.063.093-.03.22-.095.155.188.032.062.125.157.062.03h.063l.03-.03v-.094l.063-.063.094-.03.219.03.312.032h.125l.094.03.125.063.312.125.032.032h.03v.03h.032l.031.032.031.031.688.344h.031l.063-.063.062-.093.031-.032 1.094-1.468.031-.031.156-.22.032-.03 1.03-.188.438.188.532.218.656.25.094.032-.063-.188-.031-.094-.75-3.093-.031-.094v-.094l-.031-.094-.344-1.406-.031-.093-.032-.063.657-2.781.343-.656.344-.625 1.25-2.313-5.841-3.22-2.125-4.938v-.03l-.125-.188" id="path10920"/><path d="M258.59 855.566V506.854h27.25v-15.132h-27.25V433.59l-.005-.004.005-.005-.652-.584-.005-.005h-20.22l-.006-22.372h9.3l3.094 2.16 6.73.11-.573-11.752" id="path12650-4"/><path d="M528.395 660.038l.688-.438.562-2.5 1.188-.781.625-1.938 1.968-.937 3.344-2.625 1.75-2.156-.156-.844.75-.5.25-.438.031-1.031 1.063-1.219.28-1.218 2.72-2.625.218-3-.875-.938-6.312-2.781-1.813-.219.531-1.25-1.25-.281-.062-1.563-.875-2.156.438-2.031.656-1.375 1.75-1.625-.188-1.063 2-1.937 1.656-.344 1.188-3.031 2.469-1.344 1.156-3.906-.063-1.656 1.344-2.25.406-1.844-.906-1.125.125-4.719-.406-.719.656-3.75 1.688-3.781-30.375-2.125-3.782-3.094-.218-2.406-1.625-3.312-.063-.063-.594-.719-1.562-2.593.781-1.25.031-.094 7.844-16.906.813-1.782.53-1.125-1.968-.25-.031-.625-4.281-2.156-3.344-2.469-.281-.937-1.344-.906.031-.97-.562-.437-.094-2.656-.469-5.094" id="Brazil:West-0"/><path d="M491.72 280.47l.036.41.298.2.148.299-.016.186.185.349.39.173.073.302.158.2.024.167.094.135-.135.244.159.251.13.22.103.126-.085.434.197.375.428-.024-.23.617.074.235.521.496-.01.081.262.145-.074.421-.245.183-.024.206-.189.201-.105.072-.129.06.023.441.115.341.174.092.06.09-.143.186-.195.959.019.426-.095.319.12.093.105.534.264.098-.141.072-.01.233.333.116-.086.291-.16.228-.23.155-.3.297 2.85 4.55-1.898 3.477-7.768.136-7.994 4.968-3.974.021-2.31-.923-2.737.271-.497.571-1.79.344-1.19-.915-2.197-.028-.281.445-.91.012-.32 2.32-2.84 1.417.733.574 2.676-.999 2.31 1.707.28 7.985 1.514.653.336 2.513 2.045 2.13-2.115 2.72c-.152 38.322.27 82.478-.202 125.47-.039.171-.084.373-.13.57-.192.076-.45.188-.686.272h-19.41l.844 3.033-.299.18.034.237.546.264-.305.624c-.243.192-.69.375-.797.677.206.233.43.526.7.758l-.283.478-.833.513 1.127 1.412-.176 1.398 3.479 25.985.985 2.312 3.292-1.406 6.068 3.322h31.618v4.471l-1.405 2.3 5.11 1.149 5.007 2.555v3.832l.763 1.168-3.341 2.212-.887 1.243.43 1.593 1.323.225-.131 1.01-3.521 1.042.074 2.361-1.283 1.279 3.036 3.395.602 1.322-1.803 1.865-1.066.049-1.908 1.226-5.255 1.072-.581 2.108-2.486-1.883-.273.503-.586-.398-1.954.248-2.843-1.551-.678.171 2.798 2.868.91 3.934-.233 1.155 3.156.437-.096.703-2.995 1.39-1.514 2.627-.012-.481-3.606 1.59-1.855 2.206.027-1.306-3.649.834-2.593-2.18-2.148-5.88-1.38-1.483-.995.006 2.509-3.001-1.275-1.305-1.365-3.809.22-3.676 1.914-3.049-.19-.914-1.71-.541-7.417.881-3.298-3.981-2.87-.59-1.567.506-4.145-.095-.897-1.643-1.089-.218-.299-1.159.423-2.891-1.841-3.929-.753.077-.266-.903-1.786.506 1.448-2.17.794-3.75 1.835-2.947 1.156-.394 1.31-2.357 6.014-1.65m27.22-262.045l.719.308-.71.942.312 2.287 1.853-.232-.858 1.056.438 1.81.646.421-.715.258-1.297-.575-.653.867 2.633.4.676.924 2.015-.9 1.119.77-2.645.61-.108.676 1.166.568-1.548.98-1.263 1.693 1.011.43.714 1.769.595-.177 1.058.887.51-.409-.767.934-.528 2.204.533.21-1.72 3.366 1.154 1.69-1.289.29.44 1.051.83.224-.608.665 2.537.601-1.187.864 1.27 1.931 1.422.505.205 1.116-1.939 1.042-.245.66.6.663-1.23 2.485-2.988-1.006-6.228.263-.826-1.265-1.788-.564-2.443-2.203.798 3.4-.61.48-2.74-2.217-.46.071.84 2.074.942.685-1.218.881-1.367-.392.513 1.996-1.336 1.174 1.583 1.766.122 1.342 1.243.244.413 1.006.678.3-.288 1.332-1.415-.527-.878.742.43 1.387 1.508.048-.167.773.885.395.167-.39.194.45.65-.357.156-1.36.912-.54.763.844-.71 1.155-.238 2.388.518 1.015.45-.93 1.66 1.61.738-.368.854.41 1.073.618.802 1.074 1.366-.025.751.101.678 1.218 1.378-1.076v-1.994l.677-.516-.315-3.684 1.617-.195.487-.411.796-.313.191.828.685.466-2.244.372-.988.82 1.477.954.538 1.7-.812-.102.08.49 7.68-.02" id="path14938-9"/><path d="M472.145 68.381l12 29m182.156 45l.656-10.187m22.688-30.688l-15.906-1.844 1.25-36.843 13.906 1.25" id="path12698-8"/><path d="M872.753 578.725l-1.28-3.733 1.62-1.365.51-4.145-.534-3.202 1.409.394 1.51-1.13-.074-3.604 1.666-4.113 1.956-.06.258-.638 1.592.859 1.483-1.154.547.89-.422-2.386 1.547.01.568-.707 2.168.627.577.648 2.065-.286.798-1.174 2.64-.056-.487-1.666-1.584-.376-2.715-2.242 1.1-.811-.629-.952-2.245-.193 1.813-.99-1.908-2.827-1.607-4.377-1.57-.667 1.551-2.793.631.423 1.063-.781.481.387 1.168-.712 1.325.305-1.247-1.572-1.49-.167-.392-2.621-.681.56-.252-1.352-.59-.323 2.53-1.453.92.269.612-.848-2.982-.28-1.826-1.417m-11.55 51.849l-.044-.048" id="Democratic_Republic_of_the_Congo:West-8"/><path d="M1111.899 487.964v11.735h11.59v-11.735h-11.59z" id="path10720-2"/><path d="M1066.313 284.967l-1.25 2.875-3 .844-3.562-1.157-.25.5v.063c-.101.346.136.315-.156.594v.03h-.032c-.103.13-.226.313-.28.47l-.032.03v.063l-.03.031c-.06.095-.15.108-.25.125h-.062c-.127.034-.247.013-.376 0h-.093l-.063.032c-.173.103-.222.093-.343.25v.03h-.031l-.031.032-.031-.031v-.094l.094-.281.03-.125.032-.094-.22-.062-.343-.094-.906-.219c-.279-.079-.54-.115-.813-.156h-.03l-.032-.031c-.132-.059-.21-.044-.343-.031h-.093c-.545.043-.863-.563-1.344-.72h-.093l-.062-.155-.031-.094-.156-1.094-1.375-.656-.25-.063-2.219.094-.156.563-.031.062v.094c.01.069.04.117.03.187v.063l-.03.031c-.014.105 0 .212-.094.281l-.031.031h-.125l-.156.032-.407.062-.187.031-.094.032-.031.03h-.031v.032h-.062l-.125-.094-.25-.156-.594-.5-.219-.219-.125-.125v-.062l-.03-.031v-.094l-.032-.031v-.093h-.437l-1.875.218-1.22.187-.25.563-.03.094-.062.093v.032l-.031.03h-.031l-.031.032-.031.031h-.094l-.156.031-.375.094-.157.031-.062.031-.03.032v.03a1.32 1.32 0 0 0-.063.313v.032l-.03.03v.032c-.01.361-.187.259-.47.562v.032l-.03.03h-.031l-.031.032h-.031c-.077.058-.178.091-.25.156v.032h-.031c-.091.072-.175.09-.282.125l-.03.03h-.093c-.242.097-.413.186-.563.407l-.031.031-.031.031v.032l-.375-.22-.282-.155-2.906-1.844-.344-.313-.062-.062-.063-.031v-.032l-.03-.03h-.032l-.03-.032-.032-.031h-.03l-.063-.031c-.056-.013-.144-.018-.187-.063v-.031l-.031-.031h-.031l-.031-.031c-.09-.082-.199-.1-.312-.125h-.062c-.097 0-.188.073-.282.093l-.03.031h-.094l.031.063.031.156c.59.971.378.461.407 1.656v.125l.03.094v.031h.032v.062l.03.032v.062l.032.032v.093l-.063.094-.062.062-.688.438-.281-1.281-.031-.125v-.188c.04-.041.09-.055.125-.094v-.03l.03-.032.032-.031v-.031l.03-.032v-.03l.032-.032v-.031l-.25-.25-.188-.156-2.125-1.72-1.656-1.28-.406-.22-.25-.187-.063-.062-.031-.031v-.032h-.188l-.156-.03h-1.469l-1.125-.063h-.219l-.03.03c-.039.146-.218.023-.313.22v.03h-.093l-.125-.03h-.031l-.062.03h-.031l-.062-.03h-.063l-.031-.032-.062-.03-.125-.188-.094-.157-.75-1.562-.875.531-.094.063-.125.093h-.031l-.031.032h-.344l-.531.03-.188.032h-.125v.031l-.03.031-.032.032-.03.03h-.032l-.03.032-.032.031c-.154.129-.165.231-.094.406v.032l.031.03v.032l.031.031v.031a.296.296 0 0 1 0 .157v.03l-.03.032h-.032l-.03.031h-.032l-.03.032h-.032l-.03.03h-.032l-.03.032h-.032l-.03.031-.032.031h-.03l-.032.032h-.03l-.032.03-.187-.03-.313-.063-.78-.156-.157-.25-.094-.125.062-.063h.03l.032-.03v-.032l.03-.031v-.281l-.28-.125-.25-.063-2.375-.687 2.469-1.657.218-.187.282-.219.03-.062v-.062l.032-.063v-.063l.03-.062v-.063l.032-.03v-.094l.03-.032c.018-.162.138-.278-.093-.343h-.031v-.032l.03-.125.126-.218.312-.532.125-.218.062-.157v-.062l-.03-.031v-.031l-.032-.032h-.03v-.03l-.032-.032-.03-.031v-.125l-.032-.219.062-.531.031-.219.062-.125.031-.031h.124l.094.031h.125l.313.063.094-.032h.094v-.093l.03-.032v-.062c.048-.292-.023-.541-.061-.844v-.125l.03-.093h.032l.218-.125.344-.22.875-.687.313-.25.156-.156v-.062h-.031l-.031-.032c-.242-.036-.062-.18-.062-.343v-.094l.03-.094.063-.156.03-.094v-.249l.032-.125c.074-.358.286-.483-.063-.594h-.031l-.031-.031.062-.25.156-.438.469-1.094c.293-.795.641-1.612.906-2.406v-.062l-.03-.032h-.032l-.03-.03h-.064l-.03-.032-.032-.031c-.117-.174-.141-.285-.406-.219h-.062V267c.069-.294.119-.298.03-.563v-.031l-.03-.031v-.031l-.031-.032v-.03l-.031-.032h-.031l-.094-.063-.094-.03-.219-.126-.062-.062v-.031l.031-.032h.031c.364-.263.328.013.625-.093l.125-.063.062-.031.625-.25.406.156h.062l.063-.031h.031l.031-.031h.094l.062.031c.08.014.172.009.25.031l.031.031h.062l.031.032h.031l.031.03c.393.23.33.075.625.188h.031V266c-.022.103-.072.212.094.156l.031-.031h.125l.031.031h.031l.062-.031.063-.094.125-.156.031-.062h.062l.031.03.031.032v.031h.031v.031l.031.032v.03l.031.032v.187l-.03.063-.095.031-.25.094h-.094l-.094.031-.062-.031h-.093l-.032.031h-.03l.03.062.062.125.157.22.094.093.063.062v.032l.03.03h.032l.03.032h.063c.08.005.159-.016.125.094l-.031.062v.156c.11.073.345-.05.437-.125l.031-.03h.031l.031.03v.062l.031.032h.186l.062.031h.031l.031.031c.065.083.041.09.031.188l.031.031v.031l.031.032c.244.145.215.066.313.312l.03.031h.032l.062-.031c.089-.081.185-.371.312-.406h.031l-.03-.188-.032-.281-.187-.781-.063-.313-.062-.187-.031-.031-.031-.032-.031-.03v-.032l-.031-.031v-.219l.03-.156.126-.281.312-.657.157-.25.062-.156h.03v-.031l.032-.031.03-.031v-.032l.032-.03c.047-.072.107-.152.156-.22v-.03l.03-.032.032-.031.03-.031.032-.032v-.03l.03-.032.032-.031v-.156l-.094-.22-.188-.5-.094-.187-.062-.125-.03-.03h-.032c-.096-.092.05-.096-.125-.25l-.03-.032v-.031c-.038-.073-.128-.141-.157-.219v-.031l-.03-.031v-.032c-.23-.252-.483.05-.563-.125v-.062h-.031v.031h-.124l-.031-.031v-.031l-.031-.063v-.093l-.031-.063-.031-.031v-.031l-.031-.031h-.031l-.031-.032-.031-.03h-.031l-.062-.032h-.031l-.031-.031h-.125l-.031-.063.03-.062.126-.157.312-.125.157-.03.094-.032.03.031h.093l.032-.03.062-.032.03-.063.095-.156.03-.062.063-.032.03-.03h.094c.267 0 .153 0 .343.124h.155c.42.002.287-.125.532-.437l.03-.063h.032l.03-.031.032-.031h.03l.032-.063.03-.062.064-.094.062-.062.03-.032.032-.03h.124l.03-.032h.093l.032-.031c.13-.051.275-.11.406-.156h.03l.032-.032c.174-.18.33-.54.469-.75l.062-.093.125-.25.062-.063.03-.062c.14-.12.154-.152.313-.25l.03-.032.032-.03h.092l.032-.032h.062l.03-.062.032-.063.03-.094.032-.062.03-.031h.032l.03-.032.032-.03-.219-.188-.187-.125-2.344-1.219 2.781-1.906.281-.188.313-.218.03-.063v-.094l.032-.03v-.063l-.031-.031h-.031l-.062-.032-.031-.03c-.04-.137.068-.207 0-.407v-.156l-.031-.063c-.03-.206.013-.427-.25-.187l-.094.031h-.062l-.062-.031-.062-.063v-.062l-.031-.094-.031-.062v-.063l-.031-.031v-.063l-.031-.03v-.032l-.031-.031-.031-.031-.031-.032h-.249l-.031-.03-.031-.032-.031-.031-.031-.031v-.032l-.031-.03v-.095l.03-.093V250.628l-.03-.032v-.031h-.186v-.063l-.031-.031h-.093l-.062.031c-.092.084-.166.266-.25.344l-.031.031h-.031l-.062-.031-.062.031-.062-.125-.094-.156-.156-.594v-.375l.062.031h.062l.062.032.03.062v.063l.032.062.03.031.032.063h.03l.126-.094.156-.25.344-.625.156-.25.094-.125.03-.031.032-.031h.03l.032-.032.03-.03h.032l.03-.032.032-.031h.03l.032-.031h.03v-.032h.032l.03-.03h.032l.063-.032h.187l.156-.031.344-.094.125-.031.063-.063-.031-.03v-.063c-.1-.196-.247-.001-.281-.531v-.219l-.031-.063V246.534l-.031-.031v-.031l-.031-.031h-.031l-.031-.032h-.062l-.031-.03h-.062l-.031-.032h-.062l-.094-.031-.094-.094-.125-.281.03-.156.25-.188.095-.062.062-.063v-.031l-.031-.031v-.094l-.031-.031h-.031l-.031-.031h-.031l-.031.03h-.062l-.031-.093c-.04-.165-.031-.384-.188-.5l-.031-.031h-.031c-.19-.013-.206.007-.25.187v.032l-.031.03-.062-.03-.125-.063-.219-.219-.062-.062v-.063l.094-.093.125-.157.313-.437.125-.313.03-.218-.03-.282-.031-.125v-.093l-.031-.031v-.094l-.031-.156-.031-.375-.031-.157-.031-.125v-.03h-.031l-.031-.032c-.065-.061-.118-.133-.188-.188l-.03-.03h-.032l-.03-.032-.032-.031c-.077-.076-.16-.158-.218-.25l-.031-.031v-.032c-.108-.143-.147-.11-.157-.312v-.094l-.03-.03-.032-.032-.03-.031h-.032v-.031l-.03-.032v-.125l-.032-.125v-.593l-.03-.157-.032-.125-.03-.03h-.032c-.089-.07-.17-.2-.25-.282l-.03-.031-.063-.156-.094-.25-.218-.688-.062-.281-.031-.156v-.032l.03-.03.032-.032.03-.031.032-.063.03-.062v-.157l.032-.093v-.063l.03-.03c.13-.183.15-.198.344-.313l.094-.063.25-.156.062-.063.031-.03-.03-.032-.032-.031-.03-.031c-.06-.05-.148-.073-.22-.094h-.062l-.063-.094-.125-.156-.218-.375-.094-.188-.031-.093v-.063l.03-.031v-.063l.032-.03c.183-.438.092-.26.53-.688l.095-.094v-.094l-.031-.03-.031-.032h-.031l-.031-.031h-.062l-.031.031h-.093l-.031-.031c-.05-.046-.072-.082-.125-.125l-.031-.031h-.031l-.031.03h-.031l-.031.032-.031.062-.031.125-.031.032-.031.03-.031-.03h-.063c-.072-.033-.144-.067-.219-.094l-.062-.031h-.03l-.064-.031h-.03l-.063-.032c-.241-.05-.378-.193-.593-.125h-.062c-.177.02-.42-.158-.532-.28l-.062-.126-.094-.219-.28-.53-.095-.22-.03-.156c.194-.407.455-.39.687-.969v-.03l.03-.032v-.063c.069-.213.136-.397.157-.625l.03-.03v-.032c.116-.44-.055-.444.376-.469h.219l.125-.03h.125l.094-.22.125-.375.219-.968.062-.407v-.125l-1.094-1.468-2.031.375-2.813-.344h-.062l-.5-.219-.687-2.094-1.72-.437.564-1.875 2.062.219.656-.97 1.344.188.719-1 2.062.407-.156.968 1.094.22.969.124.687-.937 4.875.812 1.531-1.719 1.594.157 1-1.125 1.844.28 1.937-2.25 9.782.126 2.5-1.25 1-6.031-.72-1.47.25-1.468-.78-.281-.25-.719.75-3.156 2.093-4.25-1.187-1.219.125-1.562-.563-.22 2.375-3.78.688-.625.937-.032 1.344 1.344.813-1.187.687.03 1.25-1.093 1.344-2.406 1.625-1.5 4.531-1.281 1.094-2.875 1 .03.937-1.78 2.25-1.407 1.469-.093 1.469-1.094 2.25-.688.969-2.343 3.656-2.22-.469-.812-.937.125.843-.906 1.032-.094-.782-.843-.156-1.125-2.625.125-.625-.813-.125-1.5 1.719-2.687-1.094-.938-.469-1.187-3.593-.75-.094-.844 2.455-2.226.507-13.986 23-35.827c.01-27.41.023-52.7.023-76.727-3.967.001-8.061 0-11.607.004-.01-10.682-.01-21.694-.01-31.282" id="path11834-4"/><path d="M1112.378 577.079v5.4h5.4v-5.4h-5.4z" id="United_Kingdom:British_Indian_Ocean_Territory-5"/><path d="M1171.332 221.944h-.032l-2-.031-1.749-1.188-1.375.094-4.75 3.5-1.562-.782-3.25.063-.531-.813-1.47-.312-3.093.844-3.156.093-.25-.937-.594-.281-6.062.562-.875-.469-2.657-.218-.343 2.156-1.157.75.25 1.219-.468 1.843-.532 2.75-2.125.407-1.218.78-1.5 3.345-2.25 2.468-4.157 3-5.187-.062-1.406.937-3.063-.125-.687-.656-3.375.313.094-2.25-1.813-.907-1.812 5.344.937 1.469-1.156 1.031 1.156 1.219.938-.875.937-.094.188.844 2.218 1.687.282.813-1.625 1.031-1.22-.125.063.875-1.313.531.688.532-.563 1.468.438.375-.25.907-1.656.625 1.093.25-.687.625.75 1.125-2.719 2.687.25.125 1.188-.937 1.468-.157 2.125 3.875-.375.813.22 1.656h-1l.75 1.281 4.03-.375.5.344-.312-1.437.437-.094.938.844.156 1.968 1.281-.78-.656-.094.344-.438 2.437 1 2.907-.5-2.375 2.563.875 1.406 1.75-.938 2.562.657.469-1.344 11.406-4.969-.656.531-.281 1.532-1.47-.094 6.47 5.219 10.656 16.062-.219-.375 1.969-.906-.125-1.406.844-.125.28-.594 2.157.687-.281 1.563 1.781 1.25 4.781.125 1.25-1.188 1.813-.53 2.594.624 1.78 1.563.72 2.218 3.687 1.563-.375.656 1.313 1.938 4.28.687 2.095-1.937.25 1.593.28.25 2.5 2.157 2.563-.22 1.532-.655.343-1.094 4.625-.5 1.875-.906.438-.282-.438-.968" id="Russia:Zone_5-1"/><path d="M1238.708 279.178l-.844-.36-.062-.937.97-2.625 1.687-.125-.22-.78-.812-.407.094-.469-1.468-.25-1.563.406-.312-.843-1.157-.157-.343-.687-1.657-.094-1.25-1.437-2.125-.813-1.437.469-2.375-2.156v-.594l-1.875-1.25 2.312-1.719 1.907.281.718-2.656-.593-.687 1.312-2.532-.469-2.25 1.094-1.656 2.156-.656.5-1.656 1.344-.219v-1l-.531-.031.125-1.438-1.344-.218.25-.97-.875-.53 2.531-5.032h3.97l.968.469 2.031-.469 2.063-1.875.906-.03.406 1.405 1.094.907.187 1.218 1.625.97.75-.532-.468-2.625.968-.094.5-1.5 1.813-.719 1.406-1.593 1.719-.47 1.406-1.25-.312-2.905 1.843-.532.782-.718 1.53.406v1.219l1.188 1.125 1.469.093.094 1.188 1.375-.219 1.125 1.063 1.594-.47.062-1.25 2.469-1.687-.75-2.5-.97.032-.843-1.532 1.5-1.156 1.688.094v-1.125l-.062-1.813-2.75-.281-1.032-.688-.406-1 .062-1.5-.562-.53 2.5-2.407-.313-1-.656-.156 2.187-.532 1.97-1.656.593.188.562-.532-.218-.875 2.343-1.468.157-1.407-.438-.25 1.719-1.906-.25-.75-.781-.406-.157-1.188-1.062-.406-.438-1.156 1.25-.344-.094-1.25 1.375-.219-.75-1.406 1.22-2.625-.345-.875 3.907.844 1.78-1.031 1.72-.125-1.22-1.563-.812.313-1.187-.875-1.219.406-.469-.625-2.312-.656-.531-.688-2.157.813-.5-.844-1.187.281-.313-.75-.062-.531h.688l.937-1.75.688.219-1.094-1.219 2.406-1.438-.312-.593.844-.75 1 .062.593-.875-2.468-1.406.25-2.656-.563-1-1.094-.344-.062-1.344 1-.844-.812-2.53-.656.093.03-.844-2.218-.844 1.937-.375.72-.937 1.655-.813.97.282.593-.875.437-12.032-3.343-4.53 1.312-1.282 1.688.469 5.093-1.344 1.563-1.469 4.531.688.844-1.282-.625-2.28 1.219-.5.687-1 2.656-.345-.906-1.03.313-.72 1.562-.656.531-.781 3.47-.438 3.624-1.75.625.532 1.469-.844.375-.906-.188-.625-2.78-1.125-.032-6.22-1.094-.124-.906-1.5-2.344-.5.97-1.063-2.657-1.343-.375-1.157.125-.906.875-.5-.344-.531.563-.375-.438-1.094-1.719-.156.75-.875-2-.969 1.844-.125 1.438-1.406 1.094-.219-.872-1.058 4.716-3.222-6.055-2.476 18.604-9.56V81.473" id="path11918-7"/><path d="M1271.863 191.819c.37.641 1.782 1.437.406 1-4.048 5.808 4.716 1.703 8.313 5.218.965.21 2.874-.718 2.874-.718l1.344 3.156-.531.5-1.656-.156-.594 1.812 2.531-.125 3.188 1.906 1.187 3.594-.812.563-.719 1.968 3.156 1.407v.843l-1.687 2.22 1.094 2.28-.344 1.563 3.344 1.594-1.094 1.562-.094 1.219-.625.156-1.875 3.094.062 1.562v.032l-2.188 4.718.813.157 1.687 2.062 3.219-.312.969-1.563 2.25.531 1.062-.593 1.032.437 1.406-.469 1.53-1.53.126 1.374 1.531-.031-.843 1.219.218 1.75.532-.625-.22-.625 3.313-.75.875-.719-.218-.781.843-1.344 2-.719 2.469-2.219-.094-.75.687-.718.594.187 1.719-1.687 2.25-.688 7.594 3.656-1.126.5.72.75-.438 1.532.344.406 3.156.687.937-1 3.125 1.25.407.813-.688.5v.719l.719.687-.313.719 1.594 3.094-.03 1.031-.095.469-2.063.375-2.093-1.438-.625.281-1.844-.406-.906.594.469.937-.813.313.031 1.531-1.469.5 1.594 3.875 1.625-.25-1.031 2.875-.625.188-.469-.813-.937.938-1.563.531-2.062-.844-1.063.25-1.719-.937-.75.5v1.031l-.625.844 1.594 1.093-.562.313.718 1.562-.312.25.625 1.25-.282.72.563 2.812 1.469.03 2.718 3.188.062 1.063-1.656 1.562-1.594-.25-2.562.625-3.031 2.657-4.594 1.78-.531.595-.094 1.468.625.938 1.031.344-.281.687.812.5-.906 1.719-2.5 1.656-1.469-.156-1.594.875-1.53-.125-.876.937-1.562-.468-2.125 2.187-2.657.875-1.593 1.75-3-.687-3.125 1.656-1.407-.969-.656.406-1.594-.406-1.062 1.531 1 .875-1.125.407-.344 1.28-.875.563 2.844 1.5-3.156 1.032-1.094 2.156m106.594 6.25l.062-.063 1.03-.093.876-1.688h1.094l.5-1-.688-1.718.563-.344-.157-1.125-.687-.25.719-1-.625-1.313-.657.188-.25-.594-.875.281-.312-.437.656-.656-.25-.47-.875-.155-.187.375-.344-.313 2-3.656 1.156-.75.781.125-.28-1.875 3.937-.844 1.406-1.781 1.156-.594 2.344-.156.406-.344-.875-1.937.438-.657 6 1.594.718-1.375-.718-1.281 1.5-2.438-.625-.656.468-.375-1.687-1.437-2.531 1.187-2-.719-3.188 2-3.625.031-1 .625-.343-.718-1.72.156-.155-3.406-1.563-.375-.75.312-2.406-.937 1.594-2.344 1.718-.25 1.25-2.563 1.75-.5 1.063-.656.344-.937 1.5-.125 1.562-1.813 1-.156-1.437-.875-.438-1.156-6.625.437-.781-.406-.313-.906 1.594-4.375.875.406.5-.875.844.625.344-1.313-.282-1.375-2.78-2.406.718-.531 1.125.437 1.25-2.093 1.219-.563-2.657-3.406 1.157-.188 1.656 1.063.281-.219-.531-.844.812-.53-.28-1.532 1.312.031.656-1.094-.188-1.656-.562.531-.906-.28-.22-1.907-.75-.438-1 .25-.75-1.718.095-2.5 1.5-1.657 1.719-3.093.5.218-.063-.718.5-1 .563.218c3.536-1.295 1.964-1.36 2.188-3.968l-.438-1.032.563-.906-.657-.344-.312-.28.781-.47.656-.406.407-.156.25.469.656-.282.531-.5.344-.406 1.281.125 1 .281.656.844.625.719.782.594 1.28.218 1.032-.468 1.031-.72-.156-.218-.969-.594.657-.593.843-.657.375-.562.844-.75-.531-.531 1.094-.75-.563-.72-.687-.75-.282-.905-.812-.625-.719.468-.719-.375-1.25-.25-.718-.343-.813-.375-.875-.47-.406-.343-.062-.562-.72-.157-.312-.625-.125-.562-.843.125-.72.375-1.03.187-.688-.343-.281-.594.312-.469.188-.594-.469-.312-.844-.063-.53.063-.563-.469-.657-.781-.625-.5-.78-.188-.813-.312.406-.375.562-.469.344-.437.625-.625.5-.375-.281-.47.875-.843-.094-.281.531-.125-.03-.25-.532-.219.75-.531-.781-.375-.125-.469.062-.906-1.375-.281-.719-.094-.094-.375.313-.813-.157-.562-.593-.688-.22-.906-.624-.812-.313-.75-.312-.657-.813-.5-.343-1.03.218-.47-.03-.843-.876-.282-.875-.187-.406-.469-.875-.812-1.312-.344-1-.594-.75-.531-.844-.531-.188-.938.031-.812-.156-.282 1.688-.937 6.78-3.25 3.25-3.719 2.5-3.625.157-3.687-1.969-3.75-2.187-1.219v-.125l1.969-.938-.844-.343 1.5-.657.094-1.843 1.281-1.157 1.469-.28-1.219-.876-.25-1.187-1.25-.031 1.563-1.5-.25-1.375-.75-.532-4-.281.156-4.75-.375-.656-1.531-.375" id="path11902-1"/><path d="M1513.845 700.321h6.037l.013-6.136h-6.05v6.136" id="Australia:Lord_Howe_Island-1"/><path d="M1555.095 688.884h9l-.013-9-8.987.023v8.977" id="Australia:Norfolk_Island-5"/><path d="M1626.37 769.035l10.8.008-.013-10.8-10.775.021-.013 10.772" id="path5179-7"/><path d="M125.79 155.346l.022 70.568 4.62.797 1.495-1.002 2.634-.105-.305 1.645.578.8 6.748 5.244.45 2.208 3.184-1.672 1.106-.085.52-1.841 1.038-.568-.439-.556 4-1.049 2.283 3.076 2.253 1.303 1.128 1.746 4.01 3.075 4.795 7.105.575 1.003-.328.8 2.192 3.156 5.638 2.022 2.444 1.434.336 1.12-.717 1.084.787 3.031" id="path13-6"/><path d="M469.667 540.403l-.82-1.685-1.192-2.21-2.718 1.652-1.226-1.241-.444.814.568.527-7.856.063.017 3.01 2.653.112.67 1.798-1.523-.4-2.742.782-.058 3.328 2.039 1.658.837 2.707-2.407 14.616" id="path77-1"/><path d="M455.465 565.934l-.2.423-1.265-.246-.261-.627-1.455-.104-1.392 1.171-4.456.691-4.435 2.82-1.507 4.924.29 1.096-2.408 1.682-.754 1.432.42 1.089-1.28.979 1.357 1.253.966 2.702 2.439 2.886-.027.699-1.106 1.237 4.168.576.562 2.205 4.158-.045 3.57-2.588-.422.62.372.723-.448.518-.016 5.501.362-.284 1.07.562 1.83-.72 1.674.166" id="path91-4"/><path d="M458.674 621.315l-.454-2.433 1.045-1.43-.665-.56-.33-1.53 2.301-2.757-1.057-2.494.561-3.064 1.342-2.48-4.146-7.292m32.13 53.885l-.764-1.168-5.085.01-1.855 4.077-1.315-3.02-2.166-.612-3.219.038-2.2-1.555-.322 1.41-1.389.587-2.752 3.075.806.843-1.488 4.947-4.277 1.935-1.45 1.864.962 1.621-.878.924-.172 6.006 1.124 1.648.104 1.004-1.418.621-.827-.215-1.474 3.304-2.481 3.146-1.723 4.449.447 4.095.458.447-1.556 1.089-.422 3.221-.95.35-.418 1.545 1.445 2.775-.589.699 1.008 2.141.566 3.911 1.17.702-.507 2.72.325 1.706-1.074.315-1.461 3.896-.94 1.119.741 1.731-.09 2.993-.699.052-.585 1.394-1.522.374-.559 4.05 1.344 7.796-2.388 1.142-.554 3.827-.706-.075-.065 2.611-.661.177.52 1.505-1.039 1.743.005 5.327.855 2.488-1.526.619-.328 4.003.254.93 1.578.54-.942 1.5.808.648.521 2.137-.824 2.585 2.23.074 1.105.72-.875 1.502-3.637-.087.095.673 2.309.469 1.198 1.88-2.178 1.82.602 2.14-.94 1.1.813 2.883-1.319 1.578.367 1.616-2.236 1.41-.819 2.668.98.918.114 1.502-1.246.73-.021 2.146-2.76 2.637-1.383.398-.529 1.384.215 3.542 1.165 1.131.543 2.635 1.892-.817 2.134.16.114 1.9-.561 1.037.66.792-.835 1.938 1.86 1.464.41 1.274 9.566.144 7.22 2.432-.821 1.598-.108 14.26 6.333.113 3.991 1.404" id="path107-3"/><path d="M453.383 632.356l2.628-1.079-.012-2.052 1.587-.91-.727-1.043 2.875-3.452.931-1.079-.546-.606-1.114-.118-.331-.702" id="path115-2"/><path d="M518.048 537.238l-3.727-.195-1.264 1.3-4.437 1.168-.021.843-2.343.352" id="path121-2"/><path d="M528.385 660.034l-1.654 7.503-.835 5.035-4.853 4.127-.657-.405-1.831 1.256-1.285-.654-2.929-.055-2.066-.639-4.131.013-.233-.766 1.403-1.39.871-2.789 2.699-3.703-.41-1.405-6.038-3.103-4.802-3.143-4.542-1.015-4.117-3.606-2.17-3.008-1.404-1.127" id="path123-1"/><path d="M518.048 537.237l-1.07-.462-2.154-3.364-.689-2.83-1.525.099-1.962-3.545 1.106-3.77 2.507-.446.177-2.142.845-2.135" id="path143-6"/><path d="M791.225 490.803l-.432 1.085-1.322 1.125-2.745-.12-1.681 1.46.251.452-.939.226" id="path159-8"/><path d="M799.796 456.335l-.206 13.054-1.479 3.395-1.763 1.632-9.822.395-5.338 1.731" id="path177-5"/><path d="M739.88 416.44l17.916 11.379" id="path179-7"/><path d="M769.845 376.515l2.109 1.739-.457.705.748.688-.174 4.11 1.993 5.193 1.172.875-.976 1.56.34.63-5.32-.261-2.363.35-1.118 1.468-2 .67-1.374-.137-.156 1.124.53.401-.454 1.221 1.031.356-.067.605-6.508 3.08-2.357 2.368-4.395.379-.545 1.347-.833-.17-4.087 1.125-4.705 3.373v5.243" id="path181-6"/><path d="M739.88 414.557v1.883" id="path197-1"/><path d="M799.796 456.335l-2.111.404-2.947-.192.56-1.356-.248-2.121-4.685-2.205-2.029-.211-.915-1.328-1.903-.69-.16-1.849-27.562-18.968" id="path205-8"/><path d="M787.686 517.369l.729-.378-.942-1.834.138-10.95-1.183-2.073-.043-2.407-2.559-1.926.532-2.77" id="path219-9"/><path d="M907.503 522.964l-1.778-.864-2.729.712-1.607-.843-1.141.266-1.648-.939-.813.303-.203 1.242-2.979.585-.927-.842-4.94 2.356-2.43-1.041-2.015 3.118" id="path225-2"/><path d="M872.906 663.541l-.017 18.213-2.013.563-1.39 1.055-.242.884-4.803-.047-3.591-1.004-.365-1.218.319-.673-1.023-1.164-1.233-.14-1.93 2.532" id="path267-7"/><path d="M791.168 489.151l.057 1.651-1.576-2.17.95-.295-.533-1.257-1.867.321-3.476-2.005.355-1.449.955.02-1.714-1.283-1.434-.417-1.706-3.405.009-2.32" id="path271-9"/><path d="M872.952 351.852l1.127.144.207-.792.51.03-.399-1.034 1.362-.48.837-1.935 1.168-.926-.293-1.395 3.753-.424.63-.928 1.335-.368 1.827.198.793-1.103.72-.063.39-1.992-3.044-3.447.901-.935-.508-1.902 2.582-2.06-2.164-1.609-.726-1.731 1.389-2.504-.818-.93.342-.89.85-.011-.32-.386-1.09-.447-1.322 1.207-3.765-1.958.918-.466-.26-1.466-3.359-1.904.181-.326-2.589-3.284 4.245-1.09 4.373-7.466 3.61-2.22-3.455-2.716.035-.818 1.851-3.169 1.509.442-.843-1.005-.072-2.428 3.965-4.03 2.146-1.044.489-1.312-.701-1.123.833-.297-.95-.809-1.518-3.28" id="path283-5"/><path d="M745.609 365.022l-.373-1.474.418-1.185 2.266-2.474-.781.11-.998-1.64 1.671-2.913-1.263-.935-1.407-2.539 2.35-.014.935-4.432-.462-3.029 2.734-1.946.653-1.023-1.64-.868-.056-1.27-1.962-.12-2.91.783-1.31-.521-1.262.609-.177-.658.559-.547-.554-.664-2.524 1.115-.635.331" id="path293-4"/><path d="M890.944 631.952l2.264-1.523 4.127-.694m-24.429 33.806v-13.545l4.64-.32-.03-17.466 10.677-1.528 1.388 2.305 1.363-1.035" id="path307-3"/><path d="M872.796 578.772l2.974-.375-.37 1.67 5.719.043-.079 3.236.725 1.668-.545 5.02.266.938 1.43 1.48.702 3.24-.65 1.124.355 1.786 1.09-.467 6.362-.499.629-.735" id="path313-1"/><path d="M938.339 442.528h-12.085l-.073-1.073-.745.683-29.327.39" id="path315-2"/><path d="M910.104 231.65l.55.445-3.295 4.364.233 3.807 1.572 2.382-1.242.286-.807 1.89" id="path319-3"/><path d="M902.508 153.872l1.01-.917 3.493-.348 1.482-.797 1.306.186 1.706 1.411 3.845 1.883.73 1.036-1.679 2.639.364 1.55-2.719 1.041 1.33.069-1.002 3.335.947 2.187 3.006.87 2.935 3.265-4.183 5.523-.06.662 2.257 3.398 2.609 6.016-1.843.241-.567 2.993 1.164.95-1.152.857.137.523.738 1 .932.02.978.997-.997.55.826 1.773 1.883.932.053 1.368-1.54 1.654-1.21.572 5.827 4.029 1.505 2.112-1.468 2.85-9.157 8.617-6.869 5.332m-16.824-38.503l-1.262-2.677-1.035-1.017 1.518-3.901-1.915-2.81 1.05-1.4-1.801-1.215.55-.825.002-2.327.41-.587-1.494-1.534-12.441-7.199 1.832-.22.32-1.412 1.184-.469 2.828 1.918 2.125 2.808 6.292-.222.624-.654 4.786 2.06 2.395-2.576.945-.03 1.438-6.084 1.855-1.502" id="path323-3"/><path d="M951.278 442.527h-12.94" id="path331-4"/><path d="M907.115 244.824l2.236 1.506-.957 3.095 1.344.119 1.14 2.771-.07 1.676-.983.208-1.516 1.867-3.019.04-.502.671-1.193.322" id="path337-1"/><path d="M896.109 442.527v9.694l-4.64.31v2.099" id="path343-1"/><path d="M896.109 442.528l-.218-36.418-1.14-4.089 1.224-2.415-.49-3.77 1.327-1.457" id="path10844"/><path d="M903.595 257.099l-.693 2.192 1.265.584-4.387 2.512-1.096 3.453 1.008 1.046-1.078.067-.15-.96-1.923.986-1.125-.024-.2 1.069-1.981.562-4.068-.37-.766-1.896-1.695-.924-.872.16" id="path347-3"/><path d="M942.359 600.196l2.942.128 1.175-.839 3.308 1.494 2.16-.773 2.023.699 2.917-2.192 1.832.747 1.934-1.155 1.709-.03 5.378-3.212" id="path353-8"/><path d="M921.538 551.182l.01.013 1.59 2.697.318 2.008-.2 1.081-1.282.41-.419 2.548 1.676.137-.078 1.335-.953.495-2.031 3.167-2.448 1.778-1.26.133.031 3.572 1.06 2.617-.557 1.104.406 1.477 1.693 1.769 1.737 1.353.493 1.568 2.319 5.613 2.01.168 3.38 2.185 3.922 1.625 4.545 1.412.465-.948 2.253 2.208.499 4.64 1.642 2.85m-20.822-49.015l-2.227 1.784-.404.11-.332-.689-1.134.305.52-6.086 1.289-4.273 5.322-4.894.741-1.236-2.555-1.302.54-4.857" id="path357-7"/><path d="M936.905 278.16l1.409 1.436.09 1.005 1.524 1.343-1.592.561.677 1.027-.13 1.505 2.693.514.755-.301 1.933 1.159-.331.45.623 2.723 1.173 1.018 1.656-.538 2.395 1.01 4.143-1.033 2.623 3.257 1.255-1.024 1.839.59 1.148.983 1.14-.413 2.902 1.992 1.534-.304.017 1.962-2.081 1.81 1.739.743-1.605.566-.313.844.944.522.593 1.347-.597 1.428-.697 1.41-3.113-.272-3.253 1.582-.47 2.872m-29.94-30.156l1.664.352 1.71-1.69 2.259.248 3.684-.528" id="path373-4"/><path d="M897.335 629.735l-1.367-1.16-2.822-.32-4.109.636-6.205-5.412-.644-1.528-.01-14.946 9.275-.084-.51-.93.767-1.967-.307-7.123" id="path377-2"/><path d="M910.809 253.991l2.825 1.308 2.049-.3 1.232 1.981 2.511-1.005 1.843.22 2.341 1.374.061 1.317-.567.73.968 1.629-1.107 1.565 1.88 1.022.551 1.884 2.005 1.48.539.945-.428.946 3.36.653-.25.8 1.388.901-.031.623-3.003 1.568-3.286-.195-.411.528 1.433 1.882-.012 2.652.889 1.278-3.849.19-1.973 2.86.393 1.475-.291.767-1.682-1.464-3.875.705-1.19-1.621-1.282.595-.391.776-2.279-1.511-1.795.236-.814.806.01-.652-11.63-2.237-3.572.445-1.665 1.688-2.07.535-.324-.778.452-2.655-2.168-1.243 3.589-3.077-.157-2.5-1.858-4.9" id="path383-7"/><path d="M878.771 259.862l3.769 1.437 2.428-.289 1.16 1.859-.493.401.199 2.286-5.64.228-8.23-.698-.678-.117-.11-.048" id="path405-7"/><path d="M923.296 530.044l-1.351-.537-.061-1.137-1.584-.479-1.879-1.901.038-.88-1.813.169-.923.818-2.64-.438-1.173.726-2.8-1.469-.389-.971-1.218-.981-.887-2.745-2.542-1.877-1.205-.32-.715-1.492.48-1.104-5.21-4.65-.159-1.022-1.705-1.382-2.917-.612-.365-1.95-2.918-.049-.337-1.981.812-.724.098-2.727-3.664-4.953.431-1.516-1.905-1.769.346-2.064-.705.11-.9-3.126-1.482.288-.644-.702 2.123-2.648-.922-1.994 2.112-1.646-.75-2.062 1.338-.607 1.24-4.106.824-.768 4.094.057v-18.604" id="path407-9"/><path d="M1019.444 431.487l.31 1.008 4.338 5.429 12.197 1.148 1.666 3.938-2.632 9.211-13.921 4.819m-79.245-51.895l.362.932 4.959.822 3.151-3.429 3.509-.716 2.292-2.545-4.662-5.089 10.08-3.232.627-.543-1.128-.39-1.225-5.513 10.3-5.555.988-1.852.441-3.969-.207-3.667.582-1.498 1.815-.352 2.606-2.748 1.758-1.354 1.807-.08 4.93.452.675 1.587 2.11-.822.103-.885-.989-.847.06-1.406-1.761-.971 1.156-2.37-.641-.138-.164-2.37-1.251-3.035.954-.126.878-.225.192-1.401.527-.364 1.059.735-.16-.411-1.891-1.685-3.355-.608.201-.63-.614-1.297.649-.679-.189-1.865-.916-.962-2.911-2.598-1.127.019-.37.751-4.543-.446" id="path409-3"/><path d="M1021.401 457.04l5.164 11.291" id="path423-1"/><path d="M988.05 352.181l3.081 3.514 3.255.78 1.68-.187 3.88-3.162 2.806-1.417 1.56 1.866-.77.94.803.776-1.453.972 2.727 2.505 1.342-.138m-1.626 44.366l-.812-1.435-1.533-1.272-.142-2.597h-1.43l.75-3.988-2.034-3.171-.315-.417-.934.082-3.014-2.274-1.86-.455-.705-3.009-.888-.287-1.63-1.849.836-1.731-.614-.765.256-.59 1.003.051.314-1.872.606-.81 1.159-.24-.72-1.78.092-1.258 1.446-.555-2.693-.089-1.143-1.053-.677.15-.68-2.384-.972-.526-.005-1.158-.718-.209.17-.812-.52-1.109" id="path429-9"/><path d="M1008.209 314.475l-1.47-.875-.624-.406-1.031-.687.437-.563.938.438 1.156-.5-3.813-5.438-.593-.437-3.375.406-.938-.563-.062-2.625-2.875-1.156 2.468-4.031-.312-.875-.844-.5.594-3.063 1.687-1.03.72-2.157 1.187-.094 3.5 3.469 2.125-1.281-.563-.563-.812-3.219.5.25 3.187-1.5-.187-.812 4.593-2 .907-1.625 1.187-.125-.187-1.031m-92.439-127.72l.173 1.886-1.602.123-1.847-.715.26.3-1.029 1.636-2.914.933-1.546 2.19" id="path451-8"/><path d="M1109.529 358.506l1.639 1.766-.348.802 1.333.285-.59 4.608 1.043 2.084 4.655-1.792 2.977-2.348 1.91.674-.22.535 2.832-.949 2.98.936m-1.624 1.12l-2.372 1.112-1.599-.425-5.246.391-3.565 2.22-.763-.316-2.134 2.256 1.675 2.357.493 2.037-.72 1.283-2.354 2.155.765 1.14-.366 1.207-2.659.855-2.786-.468-.122.571 2.083 3.078-1.946 1.222-1.928.463-.343 2.041-.745.726.327 2.743-2.032 1.667-1.61-1.098-2.018.391-2.472 1.134 1.037.841-1.912.777-1.958-.53-.925.54-1.672 1.372-.664 5.53-3.445.982-4.734.459-1.712.916-2.125-.475-4.969.361-8.055-2.262 4.324-5.099.181-1.092-1.054-1.629-3.548-.508.053-3.646-1.272-4.89 1.658-1.865-1.719-.526-.142-2.908.532-.643 1.195-.124-.864-1.086 1.563-1.48 1.001-4.218 3.161.788 1.668 1.632.669-.734 2.576-.73 1.021-1.47-.519-.84 5.369-1.527 1.37-1.13 1.092-4.093 3.147-.603 1.326-1.638 2.195 1.068 1.335-.074 2.456.062.916.908 2.393-.004 1.134 1.397 1.263-.987 3.025-1.159 1.678 1.136 1.06-2.512 2.865.249.586-1.034-.571-1.018 2.754-2.768 1.107-.18" id="path459-6"/><path d="M1184.829 297.32l-1.396.682-.634 2.383-.838 1.066-3.725.795-1.05 2.44.625 3.855-.662 1.278-2.613 1.29-1.562-.501-3.5.107-3.963-1.417-3.425 9.736 1.463.566-.062 1.379-3.638.08-.675-.906-7.275 1.788-1.162.773.6.607 1.187-.151 1.2.511-.6.414-.15 1.158.388 2.62 1.75 4.706-1.988.76.9.734-1.387.42-.438.832.225 2.708.125.817-7.313 2.844-2.031 2.062-5.688.625-3.125 3.844-.625-.25-2.25.531-.656-1.875-1.625 1.063-1.812-.282.187.907-3.937 1.468-.407 2.532-1.375.812-.187 1.219 1.094 1.5-.688.437.5 1.407 2.469-.313 2.437 1.531.657 4.625.78.625-1.218.938-2.437.375.812.75 2.688.156 3.218 1.688.844 1.562-.437 1.625 1.125 1.375 1.78-.437.188.781 1.5.844 4.219.5h1.156l-.218 1.187 1.406 3.438 3.031 1.437-1.156 1.531.937 3.375 1.157.938.312 3.687-1.25.813-1-1.406-1.719.468.375 1.532 1.25 1.718-.156 2.094.781 1.063.5.843 1.875.125 2.563 1.125 1.219 1.563 3.78 1.906.376.844.812-.156.969-1.657 2.531.25.938 1.532 2.906 1.906 1.688.344 2 2.218 2.25-.375.437 1.594 1.219.938 1.656.875 1.563-.094-.407 1.188 2.938.218 1.5 2.032.625-1.313.062.563 1.5.437.906-.719 1.188.75 3.25.625 2.125-.187 2.28-1.25.938.531-.28 2.25.655 1.188 2.813-3.782 2.719-1.187 1.25.281.156.906 2.781.469 1.094-.469 1.844.594.063.969 3.718-.313 1.219-.812-.094-.75 1.937-1.188.594-1.343 3.219-.844 3.312-2.625.657.719 2.812.75 3.219-2.125 1.375 1.03-1.25.876.312.906 1.5-.812.47 1.375-1.47 2 3.531.093 1.344.75 1.063-1.594 2.093 1.375 1.094 2.875 2 .5.375 4-.125 1.688-.812 1.625.625 1.406-1.625 1.375-.907-.125-.25 1.031-1.25.625-.187 2-1.125.625-.094 1.344.594.25.281.875-.844 1.313.5.531 2.5-1.313 1.906.188 1.344-.406-.875 1.531 1.094 3.25 2.687.562.188.563-.75.719-1.063 3.218 3.72.5-.032 1.25 1.188 1.75 4.093-1.625.875 2.875 2.063.157.531-.469-.406-.313.094-2.562-1.094-2.031.688-1.094 2.094.375 1.656-1.844 2.594 1.656 1.312-1.78.844 1.03.625-.937 1.437 1.375 1.407-1.625.437.719 1.75-.688 1.188-1.812 1.562-.875 2.5 2.25 4.375.562-1.219 1.844.594 2.187 1.594.157 1.562 1.625 2.237.11.48 17.577 21.462 18.294v36.946c-16.224.044-33.018.103-47.537.143-.593.784-1.203 1.6-1.724 2.291-.414-.277-.814-.536-1.216-.8-.456.16-.916.354-1.325.519-.239.28-.429.514-.662.803-.236-.238-.475-.466-.726-.71.232-.312.41-.667.6-.993-.015-.38-.018-.779-.025-1.165-.406.02-.826.037-1.188.052-.153-.39-.313-.78-.472-1.17-.035-.082 0-.05-.137-.065l-1.375-.073c-.34-.313-.708-.631-1.004-.896-.16.445-.301.896-.447 1.345-.322-.108-.659-.24-.925-.338-.21-.076-.096-.041-.338-.006-2.619.55-5.206 1.475-7.451 2.217-.118.351-.251.76-.357 1.083.439.706.915 1.496 1.298 2.119 5.859 7.48 15.667 14.795 22.938 19.06.806.452.333.316 1.3.25 2.169-.22 4.005-.403 6.025-.608.042-5.835.088-11.757.113-17.034 7.398-.041 14.908-.084 21.6-.12-.03 4.647-.01 9.365-.014 13.601l-.378 1.1" id="path463-5"/><path d="M1141.233 374.326l-3.623 2.118-1.72 1.851-4.085 1.26-5.539-1.114-3.06.409-.656 1.337.871.528-.293 1.196 1.73.476-1.418 1.18.895 1.184-.736 1.716 1.481 2.012 1.719-.184.084 1.809 2.768.708-.137.992-2.819 1.127-.81 1.023.526 3.61-3.582 3.356.527.87-2.593 1.256-2.121 4.543-2.241 1.205-3.28 4.513-4.35 1.05-1.535-1.688-1.362.791-3.072 4.065-.173 1.567 3.1 1.034-.196 2.013.612 2.073 1.837.12 1.992 5.03-.402 1.078.471.274-1.398.837-1.028-.929-2.574 1.28-5.852-.758-.075 1.701-1.737.05-.812.996m-30.565-7.049l1.183-5.17 2.115-1.37 3.804-.593.701-2.868-2.41-.277.055-4.615-4.068-1.838-4.837-6.631" id="path469-0"/><path d="M1064.453 373.766l-.562-5.506-3.821-.052-1.359-1.992-1.98-.577-1.222-2.086-1.323-.532-3.844-.263-1.232-.918-2.759-.699-1.064-1.498-3.203-.037-.97 1-3.065-.13-2.013.76-2.722 2.73-3.072.533" id="path473-2"/><path d="M1231.845 411.767l.162 1.131-2.312 2.04 1.213 2.413-2.325-1.284-3.838 1.79-3.362 2.476.374 2.159-.662 1.655-1.912 1.755.45 1.849-2.713 5.762-3.737-.946.487 1.754-.387 2.878-1 .42.15 3.973-.775.782-1.288-.613-.562.852" id="path481-8"/><path d="M1189.12 413.557l-.625 3.86.862 1.66-.862 1.972-3.638-.209-.862-.844-1.388.786-2.75-.917-1.325.159-.925-1.338-1.575.515-3.025-1.511-.288-1.479-1.8-.776-1.375.2-.325.491-1.387-.592-1.125.681-2.525-.831-.425-1.02-2.888-1.059-.812.296-3.438-2.637-2.812-1.507-.138.565-2-1.282 1.088-2.458-.163-.808.638-.719-.1-.745 2.963-2.261" id="path485-6"/><path d="M1190.833 420.839l-.8-.418.15-.32 1.6 1.368 1.462.236-.262-1.049 2.137 2.223.913-.334.25-.636.625 1.672.05 2.709 2.787.799 7.375-.2 1.8.802.375.59-1.138.104-.325 1.667-1.162 1.045-.213.913-.6-.323-1.625.518-1.1 2.195.888 2.835.338-.868.9 1.548.75-.468.837-3.378.45.4.975-.347 1.538 8.492.312 3.33-1.375-.809-.812 1.471.3.514m-13.949-2.866l-.887-2.29-.788-4.023.363-1.197-1.6-2.007.587-3.045-3-1.585.288-1.586 1.1-.536.25-.664 2.25-.334.287-.548-.963-1.144-.95.044-2.15-1.647.088-.908 1.675-1.945" id="path491-0"/><path d="M1205.432 414.066l-.187 1.021 2 .808.2.655-.363.53.463 1.209-.963.572-5.425.144-1.575-.626-2.975.983-3.612-1.06-1.038-1.177.75-.836" id="path493-2"/><path d="M1015.708 281.872l2.375.687.25.063.28.125v.281l-.03.03v.032l-.031.031h-.031l-.062.063.094.125.156.25.781.156.313.063.187.03.031-.03h.031l.031-.032h.031l.031-.03.031-.032h.031l.031-.031h.031l.031-.031h.031l.031-.032h.031l.031-.03h.031l.031-.032v-.218l-.03-.032v-.031l-.032-.031v-.032l.094-.406.031-.031.031-.031h.031l.031-.031.031-.032.031-.03v-.032h.125l.188-.031.531-.031h.344l.03-.032h.032l.125-.093.094-.063.875-.531.75 1.562.094.157.125.187.062.031.03.032h.064l.062.03h.03l.063-.03h.03l.126.03h.093v-.03l.312-.22.031-.03h.219l1.125.062h1.469l.156.031h.188v.032l.03.03.064.063.25.188.406.219 1.656 1.28 2.125 1.72.188.156.25.25v.031l-.031.031v.031l-.031.032v.03l-.031.032-.031.031v.031l-.125.094v.188l.03.125.282 1.28.688-.437.062-.062.063-.094v-.093l-.031-.032v-.062l-.031-.031v-.063h-.031v-.03l-.031-.095v-.125l-.407-1.656-.03-.156-.032-.063h.093l.031-.03.281-.094h.062l.313.125.03.03h.032l.03.032v.031l.188.063.062.03h.031l.031.032.031.031h.031l.031.031v.032l.063.03.062.063.344.313 2.906 1.844.282.156.375.219v-.032l.03-.03.032-.032.562-.406h.093l.031-.031.281-.125h.031v-.032l.25-.156h.031l.031-.031h.031l.031-.031v-.032l.47-.562v-.031l.03-.031v-.032l.062-.312v-.031l.031-.032.062-.03.157-.032.375-.094.156-.03h.094l.03-.032.032-.031h.03l.032-.031v-.032l.062-.093.03-.094.25-.563 1.22-.187 1.875-.219h.437v.093l.031.032v.094l.031.03v.063l.125.125.219.219.594.5.25.156.125.094h.062v-.031h.03l.032-.031.094-.032.187-.03.406-.063.157-.032h.125l.03-.03.095-.282.03-.031v-.063l-.03-.187v-.094l.03-.062.157-.563 2.219-.094.25.063 1.375.656.156 1.094.03.094.063.156h.093l1.344.719h.092l.344.03.031.032h.031l.813.156.906.219.344.094.219.062-.031.094-.031.125-.094.281v.094l.03.031.032-.031h.03v-.031l.344-.25.062-.032h.531l.25-.125.031-.03v-.063l.031-.031.281-.47h.031v-.03l.157-.594v-.063l.25-.5 3.562 1.157 3-.844 1.263-2.869.836-.23.794 1.27.831-.048.85 1.45-.88.404-.017.545.833-.038 2.57 4.385-1.51.777-1.395 2.247 1.018 1.379-.817.381 2.304 2.166.6-.392.57.299.338 1.233 2.727 1.212 2.472 3.283-6.689 4.465-4.29-4.045-2.74.15-1.272 2.554-3.137.721-.114 1.283-3.655 2.939-2.825 3.556-.937 2.353 10.65 6.39 4.5 5.106 5.488-.833 6.181.304 1.814-.848 4.45 4.368 1.062-.055-.248 5.402 2.128.042 1.078 4.61 5.454-.164 1.002.876-.614 1.164 2.318 1.215.61-.095v-1.793l1.971-1.896 8.793-5.339 1.404.249-5.03 3.781 1.343.625 1-.344.5 1.282 2.969.625.063-1.22.75.126.03-.906.688.187.938 1.438h.906l.125 1.062 4.437.875-2.28 1.813-1.345-.47.22 1.188-.876-.439-.844 1.127-1.348.481-1.808-.7-1.762.26-2.26 1.905.266-.602-2.747-1.039-1.896.481-.687.983-.372-.265-.086 2.487 3.724-.222 4.308.835 2.217-.988.144.778.905.11.196.887 2.176.455 1.198-.997 5.3-.433" id="path499-4"/><path d="M1249.47 444.606l-1.95 1.27-.887 1.641.375.64-1.663.444-.775 1.936-.587-.506-1.438.646-.937-.328.287 1.17-1.687.108-.688 1.62-2.45.453-1.887-.56-.925 1.155-.438 4.756-1.887.073.637 1.405.65-.007.475 1.422-.237.719 3.675 4.057 1.062 3.33.663-.917.287.376-.3 1.203-1.287.397v3.354l-1.738.592.038 1.085.838 1.667 3.612 4.358.138 2.475-.425.64 1.5 2.328 1 3.51-3.5 4.951-19.773 15.551" id="path505-8"/><path d="M1310.033 539.66l-2.463.895-2.987-1.049-.163-.552-3.7.635-.262 1.302-1.913.668-2.225-.313-3.225 1.045-3.712-3.144-.875-1.407.387-1.131" id="path513-6"/><path d="M1238.739 279.194l4.968 2.687 3.438.406 7.313 2.344-.313.531.656 3.75 1.469 1.282 6.656 1.625 2-1.032 4.125-1 3.5.875 3 .125 2.719 1.938 1.906.125" id="path553-5"/><path d="M1357.745 588.991l-.588 1.393-1.45-.652 2.038-.74" id="path565-9"/><path d="M1280.173 292.85l.969.219.312 2 2.313 1.625 3.062-.125 7.563 1.187 9.593-2.281 3.22-2.875 2.624-1.313h3.063l3.312 2.063 3.25-.813 2.25 1.188 5.438 1.75 3.25-2.313 3.468-1.187.25-3.344 2.844-5.094 3.625-4-.562-.875.25-1.593-1.157-.563-1.75.281-.218-1.156 3.906-3.187 9.031-1.094 2-.625 1.625.031 4.75 2.25 2.438-.031 2.062.875 2.22 1.781-.47 1.094 2.406 2.906-.28.844 1.718 4.406.781-.094.313 2.094 2.468 4.531-.343 1.594 1.375 2.094 3.218.125 3.594 1.281 1.031-.281 3.47 3.344 2.312-.469" id="path589-0"/><path d="M1386.269 299.475l-.438 1.625 1 .656.344 1-.75 1.344 1.063 1.188.28 1.093h7.25l.688-1.343 2.063-.938 6.062-1.719 2.72-.25-2 2.313.968 1.875-2.688 2.437-1.687 6.5-1.563 2.125-.125 1.157-1.562 1.218-.062 1.688-1.313.406-3.906-1.062-.625-.594-1.781 2.062-2.281.719 1.156 3.531.312 4.563-.875 2.969-3.28 1.125.937.5.657 2.376 30.655.022 14.563-21.972 24.016 7.409-2.044 5.365 2.81 3.066 2.456 4.253" id="path603-6"/><path d="M467.411 99.253l-2.302 50.593m489.55-101.631V.564m-904.89 0v143.998M1581.11 281.943v170.524h-58v51.496l20.213-.01c.024 16.9.013 34.319.013 49.483 12.946.024 26.22.032 37.779.032.079 45.432-.46 92.077-.488 129.775-.252 9.9 1.171 5.398-3.512 12.77-10.2 15.52-20.76 31.44-29.913 45.345-1.327 1.63-.634 1.918-.812 4.181-.016 23.697-.048 48.565-.075 73.025h34.537l.263 37M144.898 607.162l13.737 38.082c-4.69 5.044-9.527 10.24-13.738 14.768-8.747-.029-17.213.01-25.525.01v195.542m1088.21-339.145c8.719 10.314 17.683 20.834 25.508 30.088M745.839.564v176.253l-69.628-.004-11.62-.003v30.166l11.575.004 69.673.004c.012 19.404-.002 34.615 0 52.898m852.113 33.074h66.7v-24.832h-88.487M676.231 44.848v2.705m0-10.892v-.023V33.817M537.018 190.666V523.06M885.05.564v47.652h69.608m357.318 33.256c8.704-.025 17.688-.046 25.5-.066 11.91-7.552 24.182-15.34 34.825-22.092V.564M536.976 36.98v.519m-417.641 115.38V.556m765.721 149.98c0-14.305-.047-32.94-.047-45.222l.004-.007c.157-.313.307-.628.463-.94l.003-.007.004-.007c24.096-.075 48.437-.148 69.135-.21V48.207M467.37 824.567v-30.673m751.756-277.635v.028M676.21 176.813l.02-23.91m-69.606 448.204c-.26 75.768-.451 152.31-.681 217.396-8.658.016-17.404.035-24.841.05v12.754l25.522-.01v24.267M176.847 259.192l-3.451 4.779-5.496 1.585-5.115-.534-8.824.464 12.243 17.92 22.7 17.955-.075 348.882H165.5V669.9l23.485-.02v185.684m-69.72-618.03l.113-.039.002-9.765m1545.322 53.252c2.394-.797 4.866-1.62 6.899-2.295M119.376 579.042V237.494c-24.433 8.654-48.81 17.284-69.716 24.687-16.655 5.655-33.762 11.457-48.608 16.494v.001h-.003c-.001.002-.003.001-.004.001m744.794 1.376v49.64m487.251 276.295v249.576m0-255.461v-53.597m146.152 152.107v-82.607M1233.078.556v42.52m-36.995 250.212l-1.188-2.47.625-.343-.062-.625.844.438.812-.625-3.78-3.47-.376-2.218-.844-.469-1.218 1.157h-.75l-1.938-1.094.75-1.625-1.125-.219 1-1.781 1.25-.313.062-.218 1.5-.563 2-2.187-.312-.625.875-.657-1.5-1.03.625-1.72-.72-.875-.593.063.344-1.344 2-1.625-1.344-1.406.844-.563.03-1.125-.655.22-1.032-.688-1.156.75-.844-.657.72-.218.468-2.063.562-.562-1.687-2.813 1.406-1.625 3.5-2.187-1.812-2.875-2.188-1.063-.375-.875 1.031-.719-.468-.875.406-1.718-.813-.282 2.875-3.218 1-.125.062-1.625-.28-.5-1.97-.032-3.562-1.062-.531-.875-.313-2.031 2.031-2.532 2-.78-1-1.782-3.218.156-1.782-2.687-1.562-.219-.5-1.344-2.375-.5-5.625.469-2.719-.281-.562-1.719.562-1.406-1.875-2.594-.281-.875 6.094-2.906 1.625-1.594-.563-.594-5.375-1.5-.781-.906-.406-1.781 4.812-5.157.5-1.062-.53-.781.937-1.532-1.188.032-.562-1.188-.875-.187 4-3.875.312-1.563-.656-1.156-.156-2.5-1.375-.5-1.907.594-1.125-1.344-2.843.219 1.343-3.094-.375-1.438-.843-.53-.062-.907-1.282-.781-2.312-.125-.406-1.063.375-1.937-2-1.97v-1.124l.937-.563-.625-1.093-4.812-3.407 1.03-.718.188-1.563-1.28-.531-.032-.938-.969-.468-.718-1.25 2.937-.188.156-1.781 1.375-.906-.125-1.563-.937-.719 2.562-.75-1.156-.968-1.031-.188-.313-1.375-.75-.562.72-.407-.095-.437-2.437-.188-.062-1.406-1.063-.75-.531 1.406-2.844.532-1.094-.813-3.593-.25-1.282-.969-.875-1.625-2.062-.375.281-.375-1-1.062 2.063-2.219.718.25 1.032-1.406.75.031 1.437-1.312h2.781l-.125-1.844-.906-1.688-.094-1.718-2.75-.657-1.969-1.28-1.312-.282-.406-.844 1-1.687 2.843-.063.657-.531-.407-1.313 1.344-.5-2.937-1.437-2.72-.125-1.905-.938-.907-1.343.066-15.064 7.726-.047 40.775-35.369c.17-.357.362-.764.55-1.15l-.05-25.33-64.62-.352.075-11.139 64.378.375-.037-1.08 109.404-.23c-.02-14.83-.02-30.223-.02-42.597M815.42 241.802c.008 9.715.004 19.79 0 28.405m556.884 341.975v-16.466l-11.685-5.402.402-1.983-1.112-.415 2.22-3.018-6.622-30.458 16.26-18.681.54-97.865h-23.026c-.035-6.793-.01-13.742-.025-19.868 2.585-.008 5.23-.013 7.562-.02l.214-68.085 6.388-4.48 1.45-.248 3.463-4.71.8-.21 1.65 1.79 4.038.47.65-1.092-1.163-2.253 4.475-.59 1.5-1.917 1.813-.573.812-2.6 1.55.597.313 1.273 1.387 1.39.438.725M606.628 185.554c-.002 130.884-.002 265.755-.002 382.443m785.1-425.053l.198-16.3 94.429.015 25.168-46.758V.561m-139.21 58.743l69.582-.614V.572m-278.412 854.996V465.82M537.021 35.207V.568m835.281 700.718v154.278m69.448-121.718v121.791M397.804 31.778v-.245V.564M676.166 206.98l.065 137.934-44.102.005.018 26.807 43.067.21 1.017 85.35h-20.719c-.343 7.538-.162 15.97-.162 23.808l20.143.027.48 374.443M467.411 68.384v-19.11M453.655 664.95h-51.214c.001 17.792.004 34.617.004 50.853h43.163m-117.41-243.914c-.178 67.287-.35 135.26-.503 193.061h-62.136c-.02 6.959-.003 13.979-.008 19.952 21.834.003 43.89.013 62.647.014v170.65m191.585-541.823v-5.152h-2.487v5.152m19.722-34.603h-11.602l-2.575 1.753.83-7.254-2.373-3.099-2.704-1.647-2.044.461-1.054 1.283-.677.63m300.626-63.634V.564m139.214 855V628.91M885.05 388.59v-18.823m0 485.798V710.788m348.039-104.8v-5.885m-208.116-130.432c-.02 3.91-.033 7.942-.051 11.45 3.725.084 7.565.168 10.907.241.01 4.573.026 9.285.036 13.388l-.758.506c-3.718.009-7.525.005-10.87.006-.184 30.826-.375 61.967-.53 88.447-11.942.105-24.006.218-34.265.312.056 4.773.105 9.596.153 13.696 12.077.015 24.277.026 34.65.039 0 59.033 0 119.876.01 172.84-5.646-.005-10.448-.005-15.704-.005-.122.199-.265.441-.412.673v10.916c5.66 0 11.38 0 16.144.008-.036 24.463-.036 48.92-.036 73.377m626.461-84.963v84.963M745.819 526.32l-.005.41-.588 51.902-.005.411H708.695v.073l.015 9.194v.074h37.109l-.006.996-.746 125.43-.006.994h-34.045V759.244H745.819v96.322M606.604.566l.001 19.775m-69.607 684.378v150.847M676.227 28.589v-.218V.564m348.035 0V31.85h-69.685m556.912 823.722V590.728c-3.96-3.536-8.03-7.19-11.563-10.35 1.417-.67 2.861-1.348 4.074-1.924.33-.414.658-.825.985-1.238 2.15-1.184 4.316-2.374 6.163-3.39.018-9.325.01-18.936.025-27.304l-14.463-.04c-.023-14.525-.026-29.495-.05-42.529l14.35-.01c-.058-75.056.475-143.629.505-210.795m57.974-18.692l-20.588 18.507c-12.985-.002-26.272-.001-37.399-.01-20.72 17.297-44.265 37.032-67.6 55.863.01 27.4-.023 58.46-.013 88.822-9.913.007-21.158.021-32.15.026-.01 25.674.031 54.796.013 83.262l29.613.02v25.006c-.029 1.922.2 1.036-.638 2.505-1.737 2.887-3.656 6.059-5.65 9.359-.037.616-.075 1.191-.115 1.833 0 3.875 0 7.749.013 11.623-.166 2.29-.35 4.622-.487 6.893l.461.35.02 2.263c.01 2.26.031 6.79.031 10.653 2.2.523 4.441 1.05 6.325 1.496.231.193.341.485.498.74.04.866.068 1.77.102 2.748M1581.089.57v107.69l-86.177 22.763h-33.107l-.035 1.826-12.562.687-.25.25-.688.5-1-.125-.375.438-.687.187-.375.75.281.344-.875.688-.719.75-1.156 1.187-.812.875-.5.688-.282.75-.25.906.5.906v.938l-.937.437-.438.844-1.437.469-.625.843-.75 1.22-1.031 1.03-1.094 1-.938.72-.718 1.187v1.031l.78.5 1.345-.219.03.438.813.656 1 .5 1.75-.594.875.25-.687.781-.5 1.063.687.344 1.375-.031-.594.125.188.625.719.406.28.594.313.656.25.531-1.062.063-.813-.375-1.093.187-.407-.281-.843.312-.782-.25-.812.719.156.406.625.719.219 1.031 1 .532-.219.656.219.906-.531.531-.563.594-.781.125-.813.281-.812-.03-.813.78.344.844.656.531-.406 1.094.031.563.469.375v.343l-1.594.25-1.781.47-1.688.593-1.406 1-1.719.812-2.78 1.907.561.656.657.281.406.688.75.375.625.875.594.437.625-.031.656.5.219.469 1.218.718h.875l-.156.72.031.53-.906.032-1.156-.125-1.063.562-.593.906.281.875.438.188.156.375.531.062-.03.688.624.75.719.594-.719.593-.469.657.5.5 1.75.406-1.875.187-1.093.844-.875 1.031-.438 1.063-.406 1.156.656 1 1.188.75 1.218.719 1.313.719-.813.53-.687.595.937.5.094.78 1.25.438.282.907.094.406-.157.937-.375.75.594.438v.531l-.562.563h-.907l-.875.156-1.187.687-.719.438-.687 1.469-.094.875.218.968.625.844.75.844.75.375.438.594.656.25.219.968.03-.062.282-.25.031-.031.156-.063h.218l.657.063.062-.094v-.031l.03-.031.032-.094.062-.063.03-.062.032-.031v-.094l-.031-.094-.031-.031-.031-.031-.094-.063v-.093l.03-.032.126-.093.03-.031.063-.125.03-.032.063.032.03.03.032.032.094.062.03.032h.032l.218.03.094.032.031.063.062.156.031.031v.031l.031.031.031.032.031.03.031-.03.031-.032h.031l.062-.03h.062l.031.03.063.094.031.031.062.063h.156l.157-.094h.062l.03.063.188.562h.217l.187-.281.062.031h.062l.031.031.031.031.094.032.031-.032.031-.03.063-.063h.093l.031.03.031.032v.125l.031.031v.063l.063.125.031.03.031.063h.031l.031.063.031.031.031.031.063.063.062.094.031.218.031.031.031.032.094.093.031.032.25.03h.062l.062.063v.031l.031.188v.25l.031.062.031.063v.031l.031.031.031.031.063.032.031.03h.157l.094.032h.03l.032.031.03.063v.031l-.062.062.03.063.032.031h.03l.22.063.061.03v.157h.063l.031.031.125-.031.031-.031v-.031h.063l.031-.032H1438.407l.031.032.031.03.031.032-.031.062v.032l-.062.062-.063.031-.062.063-.031.031v.031l.031.031.031.032.094.03h.156l.062-.062.031-.03h.125l.094.03.062.032.062.03h.062l.094-.062.062-.062.031-.031.031-.032.062-.093.031-.032.031-.093.031-.031.031-.032.031-.03h.249l.094.03.031.032.031.03v.032l-.031.031-.031.031-.031.032.062.062.062.063.219.156.03.031.063.031.062.063v.03l-.031.032-.063.063v.062l.03.063.063.062h.062l.25.031h.125l.062.031.03.032.032.062.03.063v.03l-.03.063-.031.032v.03l-.031.094v.094l.03.031v.032l.064.062h.125l.062-.031.03-.031.126-.125.094-.032h.03l.032-.03.03-.063.032-.094.03-.031.032-.031.094-.032.218.032h.063l.031-.032.031-.03.031-.032.031-.094.031-.03.062-.032.031-.031.031.03.062.032.062.031h.093l.094-.03h.031v.093l.031.031.031.031h.063l.094-.031.062-.062.062.03.031.032-.03.031.061.031.125.063h.062l.031.031.031.031v.031l.031.032.031.03.031.063h.125l.094-.03.125-.032.031-.031-.03-.188v-.062l.03-.094.062-.125.031-.031v-.031l.407-.438.03-.094v-.03l.25-.313h.063l.094-.031.063-.063.03.031.032.031.03.063.5.531.032.031.094.032.312-.188h.062l.062.031.062.063h.562l.03.031.032.031v.031l.062.032v.093l-.125.031-.031.032.03.03.032.032.03.031.032.031.03.032-.03.03-.031.032-.188.094-.03.031-.032.031v.063h.031l.062.03.031.032.094.063.031.03v.188l.031.063.094.03.313-.062v-.062l.062-.063h.094l.03-.03.063-.032v-.219l-.031-.03v-.063l.03-.032h.032l.063-.03.25.062.03-.031.063-.032.03-.03.188-.157.094-.063.031.032.063.125.031.062.031.031v.063l-.03.031-.032.031v.031l.031.063v.125l-.062.094v.03l.031.032.062.031v.094l-.03.031-.032.031-.03.031-.032.063-.03.031-.063.125v.094l.031.062.031.063.031.031.031.031v.031l-.062.094v.031l.062.063.031.031.031.031.062.094h.062v.031l.062.031h.093l.094-.03h.062l.094-.032.25.031.031-.031v-.031l.031-.031.406.125.062-.032v-.03l.031-.032v-.094l.031-.062.125-.094.062-.062h.25l.094-.032v-.03l.03-.063.032-.125.03-.032.157-.062.094-.031h.062l.062.03h.062l.031-.03.031-.031h.062l.188-.094.03-.031.032-.032v-.03l-.125-.126v-.031l.03-.062h.032l.125.03.03-.03.032-.032-.094-.062-.031-.063v-.062l.062-.125.062-.188v-.03l.03-.063h.093l.126-.032.094-.062.03-.031.095-.094.25-.219h.03l.22-.03.03-.032h.062l.594-.094h.062l.031.031.25.313.031.031.031.031h.031l.094.063.125.031.156.062.532.125.156-.125.03-.03.688.062h.062v.155l.062.032.031.031h.219l.062-.03.094-.126.03-.031.063-.031.25-.032.25-.437.062-.031.062-.031h.156l.125-.032v.063l.03.031v.031l.032.031v.032l.094.125.03.03.032.032.03.031h.032l.062-.03.062-.032.03-.031.438.03.125.063.062.032h.031l.031.03.031.032.031.156.031.063.031.03.031.032.062.063h.031l.031-.032h.062l.094-.03h.093l.062.03.062.032.031.03.063.063v.156h.062l.094-.03h.062l.031.03.031.032.062.062h.031l.031.063-.03.03.03.032h.062l.031.031v.094h.093l.062.031h.031l.063.063.062.062h.031l.125.094v.031l.031.031v.125l.062.281.125.032.031.03.031.032.094.094.031.062v.031l-.03.063v.031l.061.063.062.093.094.094.031.031v.031l.031.032.031.03h.157l.094.032.062.062h.03l.032.094v.063l-.031.03h-.031l-.031.032-.031.031.03.063.032.093.03.063V217l.032.031v.094l.03.281v.031l.064.063.03.031v.031l.032.032.03.093v.125l-.093.094v.062l.03.063.063.031.094.094h.063l.062.03.187-.03h.062l.125-.031.031.03.031.032v.031l-.063.125-.062.031-.03.125-.032.094-.03.031-.032.031-.125.125v.032l-.063.062v.188l.031.03.125.188.125.125.062.094.031.063v.062l-.03.063-.032.062v.406l.031.094v.062l-.312.157h-.031l-.062.062v.094l.062.031.156.188.031.093h.031l.031.032.031.062-.03.031-.063-.031-.03.063-.032.156v.093l-.03.032-.032.03h-.063l-.094.032h-.062l-.062-.031h-.187l-.188-.063h-.092l-.064.032-.03.03-.095.094-.03.094-.032.063-.03.03.03.032.031.188v.03l.031.032.031.031.062.063v.03l-.187.345v.03l.094.032v.062l-.031.063h-.094l-.031.031h-.031v.156l.125.032.03.03v.094l-.061.094-.031.063-.031.03v.063l-.094.094-.125.094h-.031l-.094.031-.22.031h-.061l-.062-.031v-.031h-.062l-.031-.063-.094-.093-.031-.032h-.031l-.188-.03-.094-.032-.03-.031-.032-.125-.03-.031v-.032h-.063l-.03-.03h-.281l-.094-.032h-.063l-.03.062v.032l-.032.156-.03.031-.063.031-.03.032h-.032l-.094.093-.218.094-.062.031h-.156l-.031.031-.031.032v.03l.03.032.063.094-.031.03v.032l-.031.031-.157.031h-.03l-.063.063-.094.031h-.03l-.063-.031-.03-.031h-.219l-.062.062-.03.063-.095.03-.062.032-.094.094h-.03l-.063.031-.125.031-.03.031v.032l.03.093v.063l-.03.062h-.032l-.094.032-.094.03-.062.032-.03.031-.095.125-.062.063-.03.03.093.126v.249l.031.032h.031l.094.031.25.031.062.032h.031v.03l.031.094.031.032v.03l-.03.032-.032.031-.062.031-.187.032h-.031l-.031.062.03.063.032.03v.032l.094.156.219.219.187.125.125.125.281.188.031.062.031.031h.093l.22-.187h1.031l.156-.031.25-.063.094-.062h.031l.156-.094.47-.063h.03l.031-.03h.156l.062.03.031.032v.218l.031.031v.032l.031.03.031.032.094.063.031.03.062.063h.031v.25l-.03.031v.094l-.032.031.031.032h.062l.031-.032h.031l.062-.062h.062l.031.031v.125l.031.031.031.031h.062l.031-.03.062-.063h.031l.031-.032.031-.03h.094l.062.03.125.063.094.062h.031l.062.063v.5l-.03.062v.031l-.032.032-.062.062v.031l.563.657 1.03-.313.532.5-.125 3.25-.846.267.09 37.553 33.726 36.152m-958.524 7.618H501.45v-18.326l13.562-11.392.048-3.604v-4.551l-1.79-1.939.039-1.902.588-.54.232-.9M188.984 149.167V.564m208.82 416.695v18.185c-5.363.305-10.858-.206-15.748.181l-.004.006-.004.006c-.16.258-.32.518-.478.777l-.004.007-.004.005.077 11.065c5.398.048 10.85.097 15.488.137.234 18.817.474 37.882.676 54.055-.173.219-.354.443-.51.64-.34-.166-.7-.37-1.005-.536-.182.226-.354.474-.503.674.01.634.03 1.291.047 1.853.345.239.69.483.983.69-.174.066-.335.173-.482.25l-.092 1.807-.995.725c.456.655.919 1.323 1.323 1.908.225 120.85.458 241.657.65 345.833m-208.235-706.36c3.797-11.61 7.685-23.483 11.116-33.966 3.358-6.678 6.787-13.486 9.774-19.425 6.002-3.541 12.127-7.148 17.479-10.303 10.734-4.364 21.7-8.765 31.237-12.604V.564m208.821 0v26.06m5.019 805.47c.074 1.56-.003 3.276-.751 3.949-1.745 1.57-2.782 1.454-4.284 1.279-.015 6.357-.015 12.738-.015 18.227m630.541-422.418l-4.048 4.762v417.67" id="path56006"/><path d="M1207.563 516.294V481.92h11.6v34.373z" id="path10992"/><path d="M465.396 212.907l.018.04.019.04.018.04c.338.743.677 1.485 1.014 2.228l.019.04.019.04.017.04c.156.345.314.69.471 1.034l.02.04.018.04.018.04c.065.146.133.291.198.437l.038.08c.221.413.095.47.126.993v22.145" id="path56004"/><path d="M740.059 339.623c-15.468 16.425-31.514 33.411-45.268 48.015v30.49h23.428" id="path55916"/><path d="M815.442 525.299c.197 3.344.391 6.723.56 9.596l.013.001c.575.049 1.151.098 1.726.145l.014.001c-.021 5.5-.04 11.055-.06 15.779-5.015.112-8.826.211-13.258.315-.295.175-.43.48-.595.704.08 1.322.166 2.625.24 3.814l11.268.12c.199 99.846.088 199.871.088 299.777" id="path55920"/><path d="M1372.353 601.018l5.685.09 6.451-9.237 36.536.05v77.97c4.756.03 9.658.065 13.925.094-.178 21.774-.12 43.939-.15 61.986" id="path55928"/><path d="M1650.725 148.149V.313" id="path55952"/><path d="M49.766 855.555v-1.546V657.56h-.088l-.092-.001-.088-.001c-3.92-.036-7.867-.072-11.233-.101-10.689-10.283-21.713-20.878-31.26-30.07-.451-.785-.918-1.594-1.323-2.294.024-14.584.055-41.338.055-41.338" id="path8047"/><path d="M29.73 554.134l-.071-30.642H19.53V511.95h29.621l.614-35.573c-16.613.114-33.735-.144-48.64.004m.001-73.346c14.794-.011 31.946-.011 48.64-.01 0-43.423.53-92.68-.012-140.827" id="path55988"/><path d="M1671.525 476.376l-18.187-.019c-.023-25.07-.02-50.72-.038-73.332h18.225" id="path55992"/><path d="M1233.088 600.094l-5.35.02-.45.448v5.417h5.8" id="path55996"/><path d="M1615.912 554.199v22.447l26.601 22.944v17.163h-14.575c-.01 14.093-.025 28.422-.026 40.487v.32H1650.726" id="path8077"/><path d="M1187.719 297.688l-.344 1.812 1.469 1.094-.469.719.719.25 2.031.968.625 1.094 1.656 1 2-.125 1.125 1 1.594.125 1.313 1.281 3.124 5.469-.03 3.844-1.657 3.094.97 1.687 11.155 1.25-.25-4.781 1.875-1.563.563-1.375.187-2.125 2.438-1.125-.062-1.687-3.438-3.25-1.812-.938 1.937-1.937-.25-1.875 1.75-1.438 2.938.063 1.062.75 1.313-.063 1.687-1.437-.437-4.5.219-1.781-3.563-.72-1.531-3.187-4.031-.344-2.125-1.062-2.563-.469-.812.969-2.438.313-7.937 4.156-1.625.437"/></g></svg>